<svg width="41" height="41" viewBox="0 0 41 41" fill="none" xmlns="http://www.w3.org/2000/svg">
<path d="M23.3339 21.4043C22.9721 21.4043 22.731 21.6455 22.731 22.0072C22.731 22.369 22.9721 22.6102 23.3339 22.6102H27.4942C27.856 22.6102 28.0971 22.369 28.0971 22.0072C28.0971 21.6455 27.856 21.4043 27.4942 21.4043H23.3339Z" fill="#226CB3"/>
<path d="M16.6414 16.1587C13.3856 16.3396 10.7326 19.0528 10.7326 22.369V23.8161C10.7326 24.1778 10.9738 24.419 11.3355 24.419C11.6973 24.419 11.9385 24.1778 11.9385 23.8161V22.369C11.9385 19.7764 13.9885 17.5455 16.5811 17.3646L20.1385 20.922V23.7558C20.1385 24.1176 20.3797 24.3587 20.7414 24.3587C21.1032 24.3587 21.3444 24.1176 21.3444 23.7558V20.922L24.9017 17.3646C27.4944 17.5455 29.5444 19.7764 29.5444 22.369V23.8161C29.5444 24.1778 29.7855 24.419 30.1473 24.419C30.5091 24.419 30.7503 24.1778 30.7503 23.8161V22.369C30.7503 19.0528 28.0973 16.3396 24.8414 16.1587C23.9973 15.6764 23.4547 15.0734 23.0929 14.3499C24.54 13.5058 25.4444 11.9381 25.4444 10.1293V9.3455C26.3488 7.77785 26.7106 6.45138 26.9517 5.36608C27.5547 2.47197 23.1532 -0.361858 21.2238 2.65285C19.3547 2.29108 17.6061 2.53226 16.34 3.37638C15.5561 3.85873 15.0738 4.52197 14.8929 5.2455C14.4708 7.41608 15.2547 8.86314 15.5561 9.40579V10.1896C15.5561 12.0587 16.6414 13.6867 18.2091 14.5308C17.9076 15.194 17.365 15.7367 16.6414 16.1587ZM16.2194 7.95873C16.0385 7.41608 15.9179 6.57197 16.0988 5.54697C16.2797 4.58226 18.2694 3.25579 21.4047 3.97932C21.7061 4.03961 22.0076 3.91902 22.1282 3.61755C22.1282 3.61755 22.1885 3.43667 22.3091 3.25579C23.4547 1.56755 26.1076 3.61755 25.7458 5.12491C25.565 5.96902 25.3238 6.93373 24.7811 8.07932L24.0576 6.99403C23.8164 6.69255 23.4547 6.51167 23.0929 6.51167H17.7267C17.3047 6.51167 16.8826 6.75285 16.7017 7.11461L16.2194 7.95873ZM16.8223 10.1896V9.3455L17.7267 7.65726H23.0326L24.2385 9.40579V10.1896C24.2385 12.2396 22.5503 13.9278 20.5605 13.9278C18.5708 13.9278 16.8223 12.2999 16.8223 10.1896ZM19.415 14.9528C20.3194 15.194 21.1635 15.1337 22.0076 14.8926C22.3694 15.6764 22.912 16.2793 23.6958 16.8823L20.7414 19.8367L17.7267 16.8823C18.5105 16.3396 19.0532 15.6764 19.415 14.9528ZM38.89 26.7102C38.5282 26.047 37.865 25.6852 37.2017 25.5043C36.5385 25.3837 35.8753 25.5043 35.3326 25.8661C34.8503 26.1073 33.765 27.2528 31.3532 28.3381C31.0517 28.4587 30.9311 28.8205 31.0517 29.122C31.1723 29.3631 31.3532 29.4837 31.5944 29.4837C32.137 29.4837 34.9708 27.7352 35.9958 26.8308C36.237 26.6499 36.5988 26.5896 36.9003 26.6499C37.0208 26.7102 36.9003 26.6499 37.6841 27.072C37.9855 27.3734 37.9855 27.7352 37.8047 28.097C37.7444 28.2176 35.2723 30.569 35.212 30.6293C32.3179 33.4631 29.062 36.719 26.7708 37.1411C21.9473 37.8646 22.7914 37.9249 18.2694 36.1764C15.1944 34.9705 11.637 34.669 8.68261 36.297C8.38114 36.4779 8.26055 36.8396 8.44143 37.1411C8.62231 37.4426 8.98408 37.5631 9.28555 37.3823C11.8179 35.9955 15.0135 36.297 17.6664 37.2617C20.9223 38.7087 21.9473 39.4323 27.1326 38.347C29.6047 37.8043 32.4385 35.0308 36.0561 31.5337C38.0458 29.544 38.2267 29.4234 38.5282 29.1823C39.1914 28.5793 39.3723 27.494 38.89 26.7102Z" fill="#226CB3"/>
<path d="M2.47208 36.2373C2.11032 36.2373 1.86914 36.4785 1.86914 36.8402V39.0108C1.86914 39.3726 2.11032 39.6137 2.47208 39.6137H6.75296C7.11473 39.6137 7.35591 39.3726 7.35591 39.0108V30.9314C7.4162 30.9314 7.47649 30.8711 7.53679 30.8711C10.4309 28.8814 9.4662 27.5549 12.4809 27.0726C17.0633 26.2887 19.9574 29.1226 26.0471 30.5696C27.675 30.9314 28.5794 30.9917 28.9412 31.052C30.0265 31.2932 30.3883 32.5593 29.7853 32.9814C28.6397 33.3432 25.9265 32.3785 25.9868 32.3785C23.4544 31.7152 20.2588 31.5946 17.8471 32.8005C17.5456 32.9211 17.425 33.2829 17.6059 33.5843C17.7265 33.8858 18.0883 34.0064 18.3897 33.8255C20.8618 32.6196 24.0574 33.102 25.8059 33.524C26.8912 33.7652 29.7853 35.0917 30.8706 33.5843C31.8353 32.1976 30.9309 30.2682 29.2427 29.9064C29.2427 29.9064 27.4941 29.7255 26.3486 29.424C19.9574 27.8564 17.3044 25.0226 12.1191 25.8667C9.04414 26.4093 9.10444 28.1579 7.35591 29.4843V28.3387C7.35591 27.977 7.11473 27.7358 6.75296 27.7358H2.47208C2.11032 27.7358 1.86914 27.977 1.86914 28.3387V33.9461C1.86914 34.3079 2.11032 34.549 2.47208 34.549C2.83385 34.549 3.07502 34.3079 3.07502 33.9461V28.9417H6.15002V38.4079H3.07502V36.8402C3.07502 36.4785 2.77355 36.2373 2.47208 36.2373Z" fill="#226CB3"/>
</svg>
