<svg width="125" height="115" viewBox="0 0 125 115" fill="none" xmlns="http://www.w3.org/2000/svg">
<circle cx="27.094" cy="67.5589" r="26.8235" fill="#3C97F9" fill-opacity="0.12"/>
<path d="M89.1545 65.6231L76.2911 73.1254C75.8066 73.408 75.3158 73.6262 74.81 73.782C74.9692 73.4588 75.0958 73.1206 75.188 72.7722C75.873 70.2119 74.3567 67.5397 71.7357 66.6889C71.6782 66.6703 71.6196 66.6555 71.5601 66.6448C67.8794 65.98 64.2391 64.6622 61.3142 63.6033C60.2942 63.2341 59.3308 62.8853 58.5096 62.6187C55.1399 61.5239 52.1144 62.8678 49.5992 64.3271L40.2054 69.7769L39.613 68.7287C39.1885 67.9773 38.4953 67.4361 37.6609 67.2046C36.8267 66.9731 35.9542 67.0796 35.204 67.5049L31.5951 69.5503C30.8447 69.9755 30.3042 70.6695 30.073 71.505C29.8418 72.3403 29.9483 73.2141 30.3729 73.9653L40.9838 92.7392C41.5783 93.7911 42.676 94.3825 43.8046 94.3823C44.3441 94.3823 44.8908 94.2472 45.3928 93.9628L49.0019 91.9173C49.7521 91.4921 50.2924 90.7981 50.5238 89.9628C50.755 89.1274 50.6485 88.2537 50.2238 87.5026L49.0153 85.3643L50.9536 84.2436L67.3493 88.6426C68.2759 88.8912 69.1978 89.015 70.1048 89.015C71.9392 89.015 73.7115 88.5092 75.3317 87.5103L98.6759 73.1169C100.892 71.7507 101.599 68.3141 100.159 65.9068C99.4616 64.7411 96.6076 61.2764 89.1545 65.6231ZM47.939 89.2451C47.9158 89.3285 47.8516 89.4828 47.6808 89.5795L44.0717 91.625C43.8112 91.7729 43.4658 91.6771 43.3183 91.416L32.7072 72.642C32.6718 72.5787 32.6492 72.509 32.6407 72.437C32.6322 72.3649 32.638 72.2919 32.6578 72.2221C32.6809 72.1387 32.7451 71.9846 32.9161 71.8877L36.5252 69.8422C36.6065 69.796 36.6983 69.7718 36.7918 69.772C36.8543 69.772 36.9075 69.7825 36.9445 69.7929C37.0277 69.816 37.1817 69.8803 37.2783 70.0512L37.2785 70.0514L47.8895 88.8253C47.9863 88.9963 47.9621 89.1617 47.939 89.2451ZM97.2697 70.8295L73.9255 85.2229C72.1229 86.3341 70.144 86.6119 68.0439 86.048L51.1115 81.5049C50.768 81.413 50.402 81.4612 50.0939 81.639L47.6944 83.0263L41.527 72.1144L50.9442 66.651C53.0484 65.4302 55.3207 64.4062 57.6823 65.1734C58.4612 65.4262 59.3608 65.7519 60.4025 66.1291C63.3969 67.2132 67.1176 68.5599 70.9858 69.2699C72.2208 69.7096 72.9114 70.9027 72.5972 72.0771C72.2683 73.3062 71.3454 73.8431 69.8558 73.6725C67.8583 73.27 66.0415 72.7541 64.1412 72.2142C63.2862 71.9715 62.4024 71.7205 61.472 71.4707C61.3018 71.4251 61.1244 71.4135 60.9498 71.4365C60.7752 71.4595 60.6068 71.5167 60.4542 71.6049C60.3017 71.6931 60.168 71.8105 60.0608 71.9504C59.9536 72.0903 59.8749 72.25 59.8294 72.4204C59.7838 72.5907 59.7721 72.7684 59.7951 72.9433C59.8181 73.1181 59.8753 73.2867 59.9634 73.4395C60.0514 73.5922 60.1687 73.7261 60.3084 73.8334C60.4481 73.9408 60.6076 74.0195 60.7777 74.0652C61.6892 74.3098 62.5635 74.5581 63.4091 74.7983C65.3795 75.3578 67.2623 75.8926 69.3702 76.3147L69.3836 76.3173C69.9132 76.4231 70.4567 76.5218 71.0196 76.6121C73.4599 77.0034 75.6254 76.6217 77.641 75.4463L90.5044 67.9439C94.1008 65.8465 96.8495 65.601 97.8576 67.2865C98.5461 68.4375 98.2494 70.2255 97.2697 70.8295ZM37.262 72.919C37.2876 73.0871 37.2798 73.2587 37.2389 73.4239C37.198 73.589 37.125 73.7444 37.0239 73.8811C36.9228 74.0179 36.7957 74.1332 36.6499 74.2206C36.5042 74.308 36.3426 74.3657 36.1745 74.3903C36.0064 74.4149 35.8351 74.406 35.6704 74.364C35.5058 74.3221 35.351 74.248 35.2151 74.1459C35.0791 74.0439 34.9647 73.9159 34.8783 73.7694C34.7919 73.6229 34.7353 73.4608 34.7118 73.2923C34.6646 72.9547 34.7527 72.6121 34.9569 72.3394C35.1611 72.0666 35.4648 71.8859 35.8016 71.8366C36.1385 71.7872 36.4811 71.8734 36.7547 72.0762C37.0284 72.279 37.2107 72.582 37.262 72.919ZM43.2234 64.2064C43.4588 64.2065 43.6901 64.1444 43.894 64.0265L58.682 55.4773C58.8859 55.3595 59.0552 55.1899 59.1729 54.9858C59.2906 54.7816 59.3526 54.55 59.3526 54.3143V37.2156C59.3526 36.9799 59.2906 36.7483 59.1729 36.5441C59.0552 36.34 58.8859 36.1704 58.682 36.0526L43.894 27.5034C43.6901 27.3855 43.4588 27.3235 43.2234 27.3235C42.988 27.3235 42.7567 27.3855 42.5528 27.5034L27.7648 36.0526C27.5609 36.1704 27.3916 36.34 27.2739 36.5441C27.1562 36.7483 27.0942 36.9799 27.0942 37.2156V54.3141C27.0942 54.5499 27.1562 54.7815 27.2739 54.9856C27.3916 55.1898 27.5609 55.3593 27.7648 55.4771L42.5528 64.0263C42.7566 64.1444 42.9879 64.2065 43.2234 64.2064ZM36.3675 40.2505L48.4731 33.252L50.0793 34.1807L37.9737 41.1792L36.3675 40.2505ZM35.0263 42.5767L36.6324 43.5052V47.1368L35.0263 46.2083V42.5767ZM52.7617 35.7315L55.329 37.2158L43.2234 44.2143L40.6561 42.73L52.7617 35.7315ZM44.5646 60.5374V46.5403L56.6702 39.5418V53.5389L44.5646 60.5374ZM43.2234 30.217L45.7908 31.7014L33.6851 38.6999L31.1178 37.2156L43.2234 30.217ZM29.7766 39.5418L32.3439 41.0261V46.9839C32.3439 47.2196 32.4059 47.4512 32.5236 47.6554C32.6413 47.8595 32.8106 48.029 33.0145 48.1469L37.3029 50.6262C37.5068 50.744 37.7381 50.8061 37.9735 50.8061C38.2089 50.8061 38.4402 50.744 38.6441 50.6262C38.848 50.5083 39.0173 50.3388 39.135 50.1346C39.2527 49.9305 39.3147 49.6989 39.3147 49.4632V45.0562L41.8821 46.5405V60.5376L29.7766 53.5389V39.5418ZM110.24 59.2279C109.584 53.0907 105.461 48.1209 99.9384 46.1672C101.964 44.5982 103.272 42.1431 103.272 39.3865C103.272 34.6606 99.4321 30.8158 94.7125 30.8158C89.9929 30.8158 86.1533 34.6606 86.1533 39.3865C86.1533 42.1431 87.4611 44.5982 89.4865 46.1672C83.964 48.1207 79.8411 53.0907 79.1852 59.2281C79.1651 59.4154 79.1846 59.6049 79.2425 59.7842C79.3004 59.9635 79.3953 60.1286 79.521 60.2687C79.6468 60.4089 79.8007 60.521 79.9725 60.5976C80.1444 60.6743 80.3305 60.7139 80.5187 60.7139H108.906C109.286 60.7139 109.649 60.5521 109.903 60.2685C110.029 60.1285 110.124 59.9634 110.182 59.7841C110.24 59.6048 110.26 59.4153 110.24 59.2279ZM88.8358 39.3865C88.8358 36.1417 91.4723 33.5018 94.7127 33.5018C97.9532 33.5018 100.59 36.1417 100.59 39.3865C100.59 42.6303 97.955 45.2694 94.7161 45.2711H94.7092C91.4704 45.2692 88.8358 42.6303 88.8358 39.3865ZM82.0981 58.0279C83.4111 52.1937 88.5919 47.9587 94.7092 47.9572L94.7127 47.9573H94.7162C100.833 47.959 106.014 52.1941 107.327 58.0281L82.0981 58.0279ZM61.3727 51.254C61.3727 51.0348 61.4263 50.8189 61.5288 50.6252C61.6313 50.4314 61.7797 50.2658 61.9608 50.1427L66.1562 47.2922C66.4506 47.0924 66.8122 47.0177 67.1615 47.0847C67.5108 47.1517 67.8193 47.3548 68.0191 47.6495C68.2187 47.9442 68.2933 48.3063 68.2264 48.6561C68.1595 49.0059 67.9566 49.3148 67.6623 49.5149L67.0791 49.911H78.3787C78.7344 49.911 79.0755 50.0525 79.327 50.3044C79.5785 50.5562 79.7199 50.8978 79.7199 51.254C79.7199 51.6102 79.5785 51.9518 79.327 52.2036C79.0755 52.4555 78.7344 52.597 78.3787 52.597H67.0791L67.6623 52.9931C67.8997 53.1546 68.0791 53.388 68.1742 53.6591C68.2693 53.9302 68.275 54.2247 68.1907 54.4994C68.1063 54.774 67.9361 55.0143 67.7053 55.1849C67.4745 55.3556 67.195 55.4477 66.9081 55.4476C66.6399 55.4477 66.3779 55.3669 66.1562 55.2158L61.9608 52.3653C61.7797 52.2422 61.6313 52.0766 61.5288 51.8829C61.4263 51.6891 61.3727 51.4732 61.3727 51.254ZM61.3727 40.2759C61.3727 39.9197 61.514 39.5781 61.7655 39.3263C62.0171 39.0744 62.3582 38.9329 62.7139 38.9329H74.0135L73.4304 38.5367C73.1361 38.3368 72.9331 38.0279 72.8662 37.678C72.7993 37.3282 72.8739 36.9661 73.0737 36.6714C73.2734 36.3766 73.5818 36.1734 73.9312 36.1064C74.2806 36.0394 74.6422 36.1141 74.9365 36.3141L79.1319 39.1646C79.313 39.2878 79.4612 39.4534 79.5637 39.6471C79.6661 39.8408 79.7197 40.0567 79.7197 40.2759C79.7197 40.4951 79.6661 40.711 79.5637 40.9047C79.4612 41.0984 79.313 41.264 79.1319 41.3872L74.9365 44.2377C74.7908 44.3368 74.6271 44.4062 74.4545 44.442C74.282 44.4777 74.1042 44.479 73.9311 44.4458C73.7581 44.4126 73.5933 44.3456 73.4462 44.2486C73.299 44.1516 73.1725 44.0265 73.0737 43.8804C72.874 43.5857 72.7994 43.2236 72.8663 42.8738C72.9332 42.524 73.1361 42.2151 73.4304 42.015L74.0136 41.6187H62.7139C62.5378 41.6187 62.3634 41.584 62.2007 41.5165C62.0379 41.4491 61.8901 41.3502 61.7655 41.2255C61.641 41.1008 61.5422 40.9527 61.4748 40.7898C61.4074 40.6269 61.3727 40.4522 61.3727 40.2759Z" fill="white"/>
<circle cx="114.27" cy="74.2648" r="10.7294" fill="#3C97F9" fill-opacity="0.21"/>
</svg>
