<svg width="107" height="78" viewBox="0 0 107 78" fill="none" xmlns="http://www.w3.org/2000/svg">
<circle cx="23.1028" cy="49.3235" r="22.9412" fill="#F9D93C" fill-opacity="0.12"/>
<circle cx="97.6618" cy="55.0588" r="9.17647" fill="#F9E03C" fill-opacity="0.21"/>
<path fill-rule="evenodd" clip-rule="evenodd" d="M92.7302 43.4387C92.6293 43.6278 92.479 43.7859 92.2952 43.8961C92.1114 44.0063 91.9011 44.0645 91.6868 44.0644C91.4926 44.0639 91.3014 44.0158 91.1301 43.9243L88.3772 42.451C88.1011 42.303 87.895 42.0513 87.8043 41.7514C87.7136 41.4514 87.7457 41.1278 87.8935 40.8515C88.0413 40.575 88.2929 40.3685 88.5929 40.2775C88.893 40.1865 89.2169 40.2183 89.4934 40.3661L92.2463 41.8391C92.8211 42.1481 93.0384 42.8637 92.7302 43.4387ZM87.8937 28.0847C87.7458 27.8082 87.7137 27.4844 87.8044 27.1842C87.8951 26.884 88.1012 26.6321 88.3774 26.4837L91.1303 25.0121C91.2671 24.9388 91.417 24.893 91.5715 24.8776C91.7259 24.8622 91.8819 24.8774 92.0305 24.9223C92.1791 24.9672 92.3174 25.041 92.4374 25.1394C92.5575 25.2377 92.657 25.3588 92.7302 25.4957C92.878 25.772 92.9101 26.0956 92.8194 26.3955C92.7287 26.6954 92.5226 26.947 92.2465 27.095L89.4936 28.5681C89.3224 28.66 89.1313 28.7083 88.9371 28.7088C88.723 28.709 88.5128 28.651 88.3291 28.5411C88.1453 28.4312 87.9948 28.2735 87.8937 28.0847ZM93.6847 34.4678C93.6846 34.7813 93.5601 35.0819 93.3384 35.3036C93.1168 35.5252 92.8161 35.6498 92.5027 35.6499H89.3818C89.0683 35.6498 88.7677 35.5252 88.546 35.3036C88.3244 35.0819 88.1998 34.7813 88.1997 34.4678C88.1997 34.3126 88.2302 34.1589 88.2896 34.0155C88.349 33.872 88.4361 33.7417 88.5458 33.632C88.6556 33.5222 88.7859 33.4351 88.9294 33.3758C89.0728 33.3164 89.2265 33.2859 89.3818 33.286H92.5027C92.6579 33.2859 92.8116 33.3165 92.955 33.3758C93.0985 33.4352 93.2288 33.5223 93.3386 33.632C93.4483 33.7418 93.5354 33.8721 93.5948 34.0155C93.6542 34.1589 93.6848 34.3126 93.6847 34.4678ZM79.8813 46.1084L79.5003 46.0294C78.5667 45.5443 77.2291 42.9614 76.6117 38.524C78.9347 38.524 80.8239 36.6331 80.8239 34.3107C80.8239 31.9865 78.9328 30.0969 76.6098 30.0969H76.4073C76.8013 25.3302 78.0111 22.2706 79.0136 21.1405L79.9901 20.682C81.229 21.1028 83.3365 25.5479 83.3365 33.3811C83.3363 41.4483 81.1011 45.9237 79.8813 46.1084ZM76.3671 36.1605H76.6095C77.6299 36.1605 78.4597 35.3298 78.4597 34.3105C78.4597 33.2908 77.6297 32.4605 76.6095 32.4605H76.2833C76.2766 32.7672 76.273 33.074 76.2724 33.3808C76.2725 34.3623 76.3073 35.2872 76.3671 36.1605ZM61.7667 29.2126L75.4885 22.79C74.4433 25.6503 73.9086 29.5278 73.9086 33.3808C73.9086 37.8811 74.6388 42.4147 76.057 45.3233L62.2075 42.4806C61.2152 38.2434 61.0586 33.5838 61.7667 29.2126ZM56.2778 50.6697C55.9643 50.8257 55.656 50.9918 55.3532 51.1677L53.9916 43.2073L56.3864 43.699L56.2778 50.6697ZM59.3398 53.8072C59.644 55.9077 59.7728 58.0491 59.7349 60.3545C59.731 60.6361 59.5414 60.8601 59.2641 60.914C58.0991 61.1378 56.9561 61.1108 55.7711 60.8349C55.5485 60.7831 55.4101 60.6522 55.3471 60.4332C54.8562 58.7519 54.6186 57.0069 54.642 55.2555C54.6499 54.7508 54.8584 54.343 55.2614 54.0418C55.8838 53.5769 56.5901 53.1484 57.3639 52.7688C57.5557 52.6732 57.767 52.6231 57.9813 52.6224C58.2007 52.6224 58.4182 52.6757 58.6178 52.7812C59.0118 52.988 59.275 53.3627 59.3398 53.8072ZM58.1091 70.1322C58.7535 69.8563 59.1395 69.2715 59.1395 68.5691V63.3279C58.6658 63.3909 58.19 63.4257 57.7122 63.4257C56.8863 63.4257 56.0575 63.3298 55.2335 63.1374C54.1841 62.8916 53.3783 62.129 53.078 61.0934C52.5203 59.1873 52.2514 57.2084 52.2801 55.2226C52.2871 54.7133 52.3858 54.2297 52.5674 53.7852C50.8329 50.8005 48.9268 47.9092 46.7464 46.3983C45.6611 45.6449 44.553 45.2117 43.3679 45.0713C42.9919 45.1172 42.6089 45.1421 42.2238 45.1421C37.1059 45.1421 32.9346 41.0203 32.8498 35.9224C30.7143 27.3046 30.5697 18.5089 32.407 9.04007C32.4485 8.82297 32.5504 8.62195 32.7009 8.46002C32.8513 8.29809 33.0443 8.18179 33.2578 8.12442C34.5326 7.77934 35.4233 6.61654 35.4233 5.29416C35.4233 3.6776 34.1077 2.36337 32.4917 2.36337C30.3113 2.36337 29.8685 3.56264 29.3108 6.50898C29.274 6.69837 29.239 6.88738 29.2022 7.07511C24.6907 30.0149 24.5451 56.1708 28.7973 75.6361H47.3279L45.6402 62.5763C45.6085 62.334 45.6527 62.0878 45.7667 61.8716C45.8806 61.6555 46.0588 61.4799 46.2767 61.3692C46.4948 61.2591 46.7417 61.2191 46.9834 61.2546C47.2252 61.2902 47.45 61.3996 47.6272 61.5679L56.2661 69.7995C56.7745 70.2851 57.4646 70.4093 58.1091 70.1322ZM42.2238 28.7512C44.9449 28.7512 47.4265 30.3663 48.5695 32.7804L43.4477 35.1769C43.241 35.2742 43.0667 35.4292 42.946 35.6233C42.8253 35.8173 42.7633 36.0421 42.7674 36.2706C42.7913 37.5217 42.8512 38.7982 42.944 40.0636C42.9632 40.3202 43.0657 40.5635 43.2358 40.7566C43.4059 40.9497 43.6343 41.082 43.8865 41.1334L46.1238 41.5935C44.9705 42.3674 43.6127 42.7799 42.2238 42.7783C38.3557 42.7783 35.2098 39.6313 35.2098 35.7647C35.2098 31.8979 38.3557 28.7512 42.2238 28.7512ZM45.2411 38.9985C45.2005 38.3298 45.1702 37.6605 45.1504 36.9908L59.2184 30.4057C58.7715 34.2444 58.9281 38.231 59.6771 41.961L45.2411 38.9985ZM49.0473 42.1922L51.5049 42.6969L52.6629 49.46C51.2974 47.4351 49.7982 45.6369 48.0937 44.4552C47.7561 44.2203 47.4054 44.0046 47.0435 43.8091C47.7826 43.3648 48.4569 42.8207 49.0473 42.1922ZM79.8044 18.2816C79.0204 18.2816 78.3132 18.5937 77.6828 19.1517L60.2048 27.3331L50.7141 31.7768C49.189 28.507 45.9274 26.3875 42.2238 26.3875C38.8424 26.3875 35.8752 28.1871 34.2235 30.8769C33.1382 24.2207 33.266 17.3915 34.6024 10.151C36.5085 9.32221 37.7863 7.42167 37.7863 5.29434C37.7863 2.37484 35.4103 0 32.4919 0C30.567 0 29.1326 0.730892 28.2299 2.17453C27.5068 3.32789 27.2433 4.72229 26.988 6.07115C26.9532 6.25424 26.9192 6.43844 26.8844 6.61969C24.7069 17.6893 23.4802 29.8003 23.3384 41.6438C23.1836 54.515 24.3457 66.7695 26.6976 77.0812C26.7571 77.3422 26.9035 77.5752 27.1128 77.7422C27.3221 77.9091 27.5819 78 27.8496 78H48.6723C48.8402 77.9999 49.0061 77.964 49.1591 77.8947C49.312 77.8253 49.4483 77.7241 49.559 77.5979C49.6695 77.4716 49.7521 77.3233 49.8012 77.1628C49.8504 77.0023 49.8651 76.8333 49.8443 76.6667L48.4099 65.5795L54.636 71.5106C55.834 72.6514 57.5217 72.9558 59.0408 72.305C60.5589 71.6539 61.5034 70.2218 61.5034 68.5689V62.1268C61.8814 61.6273 62.09 61.0201 62.0988 60.3938C62.1388 57.961 62.0011 55.6948 61.6778 53.4681C61.5053 52.266 60.789 51.2526 59.7199 50.6885C59.383 50.5118 59.0216 50.3866 58.6476 50.3168L58.7424 44.1822L61.0027 44.6455L78.8001 48.2983C79.1215 48.418 79.4617 48.4794 79.8046 48.4794C83.6748 48.4794 85.7005 40.8844 85.7005 33.3806C85.7003 25.8786 83.6744 18.2816 79.8044 18.2816Z" fill="white"/>
</svg>
