<svg width="207" height="138" viewBox="0 0 207 138" fill="none" xmlns="http://www.w3.org/2000/svg">
<rect x="7.4624" y="59.5898" width="184.702" height="53.5258" rx="13" transform="rotate(-10.5564 7.4624 59.5898)" fill="#226CB3"/>
<path d="M40.2034 90.4159C39.0412 90.6421 37.9241 90.6394 36.8521 90.4079C35.7928 90.1577 34.827 89.7181 33.9548 89.0891C33.0796 88.4444 32.3432 87.6342 31.7458 86.6583C31.1453 85.6668 30.7213 84.5349 30.4737 83.2628C30.2262 81.9907 30.1963 80.7903 30.3842 79.6616C30.569 78.5172 30.9398 77.4915 31.4968 76.5844C32.0664 75.6585 32.7969 74.8888 33.6881 74.2753C34.5919 73.643 35.6249 73.2137 36.7871 72.9875C38.0593 72.74 39.2483 72.7775 40.3544 73.1002C41.4761 73.4198 42.4506 73.9881 43.2779 74.8051C44.1209 75.6191 44.7432 76.639 45.1447 77.8648L43.213 78.2408C42.7525 76.8797 41.981 75.8888 40.8985 75.2682C39.8287 74.6287 38.5792 74.4481 37.15 74.7263C35.9407 74.9616 34.9386 75.4663 34.1439 76.2404C33.346 76.9988 32.7982 77.953 32.5004 79.103C32.1996 80.2374 32.1836 81.4956 32.4526 82.8777C32.7216 84.2598 33.2097 85.428 33.9171 86.3825C34.6214 87.3212 35.4871 88.0004 36.5141 88.4199C37.5381 88.8237 38.6469 88.9095 39.8405 88.6772C41.3011 88.3929 42.4153 87.7523 43.183 86.7553C43.9663 85.7552 44.3099 84.5474 44.2137 83.1317L46.1455 82.7557C46.2329 84.0427 46.0386 85.2216 45.5623 86.2923C45.1018 87.3599 44.4115 88.2522 43.4915 88.9691C42.5873 89.683 41.4912 90.1653 40.2034 90.4159ZM55.2636 87.485C54.0857 87.7142 52.9956 87.6411 51.9934 87.2657C50.9913 86.8902 50.1472 86.2802 49.4612 85.4357C48.7879 84.5724 48.3351 83.544 48.1028 82.3503C47.8675 81.141 47.9109 80.0242 48.2332 78.9997C48.5554 77.9753 49.1043 77.1105 49.8799 76.4054C50.6712 75.6972 51.6558 75.2285 52.8337 74.9993C54.0273 74.767 55.1158 74.8322 56.0992 75.195C57.0984 75.5548 57.9315 76.1506 58.5987 76.9825C59.2816 77.8113 59.7407 78.8304 59.9761 80.0397C60.2084 81.2333 60.1665 82.358 59.8503 83.4138C59.5468 84.4509 59.001 85.3314 58.2128 86.0553C57.4402 86.7761 56.4572 87.2527 55.2636 87.485ZM54.9518 85.8831C55.7685 85.7241 56.437 85.3903 56.9574 84.8815C57.4747 84.357 57.8296 83.7093 58.0218 82.9384C58.2141 82.1674 58.2201 81.3187 58.0397 80.3921C57.7708 79.01 57.1862 77.9746 56.2861 77.2859C55.4016 76.5941 54.3548 76.3659 53.1454 76.6012C51.9518 76.8335 51.067 77.4377 50.4908 78.4137C49.9146 79.3897 49.761 80.5688 50.03 81.9508C50.2103 82.8775 50.5342 83.6621 51.0015 84.3046C51.4689 84.9472 52.0407 85.4145 52.717 85.7067C53.4059 85.9802 54.1508 86.0389 54.9518 85.8831ZM63.9809 85.544L61.6428 73.5294L63.4096 73.1856L63.9598 76.0125L64.0776 75.9896L65.8656 85.1772L63.9809 85.544ZM72.0849 83.9669L70.5353 76.0043C70.358 75.0934 70.0239 74.4656 69.5331 74.121C69.0422 73.7765 68.412 73.679 67.6424 73.8288C66.92 73.9694 66.3018 74.269 65.788 74.7276C65.2741 75.1862 64.904 75.7554 64.6777 76.4352C64.4671 77.1118 64.4413 77.8585 64.6002 78.6752L63.7392 75.8843C63.9733 74.9096 64.4483 74.0837 65.1641 73.4065C65.8799 72.7293 66.7169 72.2974 67.6749 72.111C68.8371 71.8848 69.8466 72.0469 70.7036 72.5974C71.5574 73.1321 72.0975 73.9806 72.3236 75.1428L73.9695 83.6001L72.0849 83.9669ZM80.1889 82.3898L78.6392 74.4271C78.462 73.5162 78.1279 72.8885 77.637 72.5439C77.1462 72.1993 76.516 72.1019 75.7464 72.2517C75.024 72.3923 74.4058 72.6919 73.8919 73.1505C73.3781 73.6091 73.008 74.1783 72.7817 74.858C72.5711 75.5347 72.5452 76.2814 72.7042 77.0981L71.6783 74.3393C71.9124 73.3646 72.4031 72.5356 73.1503 71.8523C73.8975 71.1689 74.758 70.7325 75.7317 70.543C76.8939 70.3168 77.9113 70.4775 78.784 71.0248C79.6536 71.5565 80.2014 72.4034 80.4276 73.5656L82.0735 82.023L80.1889 82.3898ZM85.6985 81.3175L83.3603 69.3029L85.245 68.9361L87.5831 80.9507L85.6985 81.3175ZM82.6871 66.5977L82.2562 64.3832L84.4235 63.9614L84.8545 66.1759L82.6871 66.5977ZM91.3579 80.2161L89.0198 68.2015L90.7866 67.8577L91.3368 70.6846L91.4546 70.6617L93.2426 79.8493L91.3579 80.2161ZM99.9566 78.5427L98.4253 70.6743C98.2481 69.7634 97.8874 69.1246 97.3433 68.7577C96.7992 68.3909 96.0796 68.2946 95.1844 68.4688C94.3991 68.6217 93.7338 68.9304 93.1885 69.3951C92.659 69.8568 92.281 70.4275 92.0547 71.1073C91.8441 71.784 91.8183 72.5306 91.9772 73.3473L91.1162 70.5564C91.3503 69.5817 91.8332 68.7543 92.5647 68.074C93.3119 67.3907 94.2195 66.9451 95.2875 66.7372C96.5439 66.4927 97.6193 66.6583 98.5138 67.2341C99.4209 67.7911 99.9875 68.6506 100.214 69.8128L101.841 78.1759L99.9566 78.5427ZM111.229 81.6059C109.799 81.884 108.54 81.7786 107.451 81.2897C106.38 80.8135 105.635 80.0456 105.217 78.9859L107.008 78.6375C107.303 79.2321 107.784 79.6519 108.451 79.897C109.137 80.1547 109.998 80.1827 111.035 79.981C112.26 79.7426 113.12 79.2246 113.617 78.427C114.117 77.6451 114.242 76.6103 113.991 75.3224L113.491 72.7546L113.736 72.7559C113.646 73.7187 113.255 74.553 112.561 75.2585C111.863 75.9484 110.965 76.4003 109.866 76.6143C108.814 76.819 107.838 76.7481 106.939 76.4014C106.038 76.039 105.278 75.4451 104.661 74.6198C104.044 73.7945 103.618 72.7771 103.383 71.5678C103.144 70.3428 103.162 69.2227 103.438 68.2074C103.713 67.1922 104.21 66.3538 104.929 65.6923C105.66 65.012 106.576 64.5649 107.675 64.351C108.806 64.1309 109.802 64.2223 110.662 64.6253C111.539 65.0252 112.202 65.7112 112.652 66.6831L112.445 66.7479L111.862 63.7561L113.629 63.4122L115.876 74.9557C116.209 76.6675 115.961 78.1175 115.133 79.3056C114.305 80.4938 113.003 81.2605 111.229 81.6059ZM110.021 74.8971C111.199 74.6678 112.054 74.0776 112.586 73.1265C113.118 72.1753 113.248 71.0008 112.976 69.6031C112.71 68.2367 112.155 67.2281 111.311 66.5773C110.464 65.9108 109.452 65.6922 108.274 65.9214C107.08 66.1537 106.216 66.7376 105.681 67.6731C105.161 68.6055 105.038 69.7706 105.31 71.1683C105.576 72.5347 106.134 73.559 106.984 74.2412C107.83 74.9077 108.843 75.1263 110.021 74.8971ZM130.394 72.8393C128.415 73.2244 126.742 73.0447 125.375 72.3002C124.023 71.5526 123.069 70.2957 122.514 68.5293L124.398 68.1625C124.825 69.4324 125.511 70.3177 126.456 70.8184C127.401 71.3191 128.596 71.4289 130.041 71.1477C131.266 70.9093 132.14 70.5027 132.664 69.9281C133.2 69.3347 133.382 68.5903 133.207 67.6951C133.058 66.9256 132.726 66.3543 132.214 65.9814C131.701 65.6085 130.968 65.3599 130.015 65.2357L126.972 64.801C125.429 64.5797 124.243 64.1828 123.415 63.6106C122.583 63.0226 122.06 62.179 121.846 61.0796C121.669 60.1687 121.744 59.3391 122.071 58.5908C122.395 57.8269 122.937 57.1754 123.696 56.6365C124.455 56.0976 125.384 55.7211 126.483 55.5072C128.179 55.1771 129.625 55.3603 130.82 56.0568C132.012 56.7377 132.846 57.8795 133.321 59.4823L131.436 59.849C131.002 58.7109 130.41 57.9296 129.659 57.5052C128.924 57.0778 127.96 56.9802 126.766 57.2125C125.635 57.4326 124.8 57.8315 124.261 58.4092C123.721 58.9869 123.532 59.692 123.694 60.5243C123.832 61.2311 124.162 61.7537 124.684 62.0921C125.206 62.4306 125.961 62.6667 126.949 62.8005L130.194 63.2692C131.602 63.4679 132.712 63.8957 133.525 64.5526C134.334 65.1938 134.855 66.1112 135.087 67.3048C135.362 68.7183 135.09 69.9124 134.269 70.8872C133.46 71.8432 132.169 72.4939 130.394 72.8393ZM143.79 70.2567C142.612 70.4859 141.522 70.4128 140.52 70.0373C139.518 69.6619 138.674 69.0519 137.988 68.2074C137.315 67.3441 136.862 66.3156 136.629 65.122C136.394 63.9127 136.438 62.7958 136.76 61.7714C137.082 60.747 137.631 59.8822 138.407 59.1771C139.198 58.4689 140.182 58.0002 141.36 57.7709C142.554 57.5386 143.642 57.6039 144.626 57.9667C145.625 58.3265 146.458 58.9223 147.125 59.7542C147.808 60.583 148.267 61.602 148.503 62.8114C148.735 64.005 148.693 65.1297 148.377 66.1855C148.074 67.2226 147.528 68.1031 146.739 68.827C145.967 69.5478 144.984 70.0244 143.79 70.2567ZM143.478 68.6547C144.295 68.4958 144.964 68.1619 145.484 67.6532C146.001 67.1287 146.356 66.481 146.548 65.7101C146.741 64.9391 146.747 64.0904 146.566 63.1637C146.297 61.7817 145.713 60.7463 144.813 60.0575C143.928 59.3657 142.881 59.1375 141.672 59.3729C140.479 59.6052 139.594 60.2093 139.017 61.1854C138.441 62.1614 138.288 63.3405 138.557 64.7225C138.737 65.6491 139.061 66.4337 139.528 67.0763C139.996 67.7188 140.567 68.1862 141.244 68.4784C141.933 68.7518 142.677 68.8106 143.478 68.6547ZM157.548 67.5793C156.37 67.8085 155.28 67.7354 154.278 67.36C153.275 66.9845 152.431 66.3745 151.745 65.53C151.072 64.6667 150.619 63.6383 150.387 62.4447C150.152 61.2353 150.195 60.1185 150.517 59.0941C150.84 58.0696 151.389 57.2048 152.164 56.4997C152.955 55.7915 153.94 55.3228 155.118 55.0936C156.311 54.8613 157.4 54.9265 158.383 55.2894C159.383 55.6491 160.216 56.2449 160.883 57.0768C161.566 57.9056 162.025 58.9247 162.26 60.134C162.493 61.3276 162.451 62.4523 162.135 63.5081C161.831 64.5452 161.285 65.4257 160.497 66.1496C159.724 66.8705 158.741 67.347 157.548 67.5793ZM157.236 65.9774C158.053 65.8184 158.721 65.4846 159.242 64.9758C159.759 64.4513 160.114 63.8036 160.306 63.0327C160.498 62.2618 160.504 61.413 160.324 60.4864C160.055 59.1043 159.47 58.0689 158.57 57.3802C157.686 56.6884 156.639 56.4602 155.43 56.6955C154.236 56.9278 153.351 57.532 152.775 58.508C152.199 59.484 152.045 60.6631 152.314 62.0452C152.495 62.9718 152.818 63.7564 153.286 64.3989C153.753 65.0415 154.325 65.5088 155.001 65.801C155.69 66.0745 156.435 66.1332 157.236 65.9774ZM166.265 65.6383L163.927 53.6237L165.694 53.2799L166.244 56.1068L166.362 56.0839L168.15 65.2715L166.265 65.6383ZM174.864 63.9649L173.333 56.0965C173.155 55.1856 172.795 54.5467 172.25 54.1799C171.706 53.8131 170.987 53.7168 170.092 53.891C169.306 54.0438 168.641 54.3526 168.096 54.8173C167.566 55.279 167.188 55.8497 166.962 56.5295C166.751 57.2062 166.725 57.9528 166.884 58.7695L166.023 55.9786C166.258 55.0039 166.74 54.1765 167.472 53.4962C168.219 52.8129 169.127 52.3673 170.195 52.1594C171.451 51.9149 172.527 52.0805 173.421 52.6563C174.328 53.2132 174.895 54.0728 175.121 55.235L176.748 63.5981L174.864 63.9649Z" fill="white"/>
</svg>
