<svg width="107" height="78" viewBox="0 0 107 78" fill="none" xmlns="http://www.w3.org/2000/svg">
<circle cx="23.1028" cy="49.3235" r="22.9412" fill="#3C97F9" fill-opacity="0.12"/>
<circle cx="97.6618" cy="55.0588" r="9.17647" fill="#3C97F9" fill-opacity="0.21"/>
<path d="M96.6527 17.6611L89.0556 2.45904C88.9544 2.25655 88.7988 2.08625 88.6062 1.96723C88.4137 1.8482 88.1918 1.78516 87.9654 1.78516C87.7391 1.78516 87.5172 1.8482 87.3246 1.96723C87.1321 2.08625 86.9765 2.25655 86.8753 2.45904L79.278 17.6611C79.1852 17.8469 79.1413 18.0534 79.1507 18.2609C79.1601 18.4684 79.2224 18.6701 79.3316 18.8468C79.4409 19.0235 79.5934 19.1693 79.7749 19.2705C79.9563 19.3716 80.1606 19.4247 80.3684 19.4247H82.6029V30.105C82.6029 30.4282 82.7313 30.7382 82.9599 30.9668C83.1884 31.1954 83.4984 31.3238 83.8217 31.3238H92.1095C92.4327 31.3238 92.7427 31.1954 92.9713 30.9668C93.1998 30.7382 93.3282 30.4282 93.3282 30.105V19.4247H95.5625C95.7702 19.4246 95.9745 19.3715 96.1559 19.2704C96.3373 19.1693 96.4899 19.0234 96.5991 18.8467C96.7084 18.6701 96.7706 18.4684 96.78 18.2609C96.7893 18.0534 96.7455 17.8469 96.6527 17.6611ZM92.1093 16.9873C91.7861 16.9873 91.4761 17.1157 91.2475 17.3443C91.019 17.5728 90.8906 17.8828 90.8906 18.2061V28.8864H85.0401V18.2061C85.0401 17.8828 84.9117 17.5728 84.6832 17.3443C84.4546 17.1157 84.1446 16.9873 83.8214 16.9873H82.3395L87.9653 5.73032L93.5909 16.9873H92.1093ZM76.7785 41.0177H68.5334C68.2101 41.0177 67.9001 41.1461 67.6716 41.3747C67.443 41.6032 67.3146 41.9132 67.3146 42.2365V74.9957C67.3146 75.3189 67.443 75.6289 67.6716 75.8575C67.9001 76.086 68.2101 76.2144 68.5334 76.2144H76.7785C77.1018 76.2144 77.4117 76.086 77.6403 75.8575C77.8689 75.6289 77.9973 75.3189 77.9973 74.9957V42.2365C77.9973 41.9132 77.8689 41.6032 77.6403 41.3747C77.4117 41.1461 77.1018 41.0177 76.7785 41.0177ZM75.5598 73.7769H69.7521V43.4552H75.5598V73.7769ZM92.0878 33.2329H83.8429C83.5196 33.2329 83.2096 33.3613 82.9811 33.5899C82.7525 33.8185 82.6241 34.1285 82.6241 34.4517V74.9957C82.6241 75.3189 82.7525 75.6289 82.9811 75.8575C83.2096 76.086 83.5196 76.2144 83.8429 76.2144H92.0878C92.4111 76.2144 92.7211 76.086 92.9496 75.8575C93.1782 75.6289 93.3066 75.3189 93.3066 74.9957V34.4517C93.3066 34.1285 93.1782 33.8185 92.9496 33.5899C92.7211 33.3613 92.4111 33.2329 92.0878 33.2329ZM90.8691 73.7769H85.0616V35.6704H90.8691V73.7769ZM30.6825 66.072H22.4375C22.1143 66.072 21.8043 66.2004 21.5757 66.429C21.3472 66.6575 21.2188 66.9675 21.2188 67.2908V74.9957C21.2188 75.3189 21.3472 75.6289 21.5757 75.8575C21.8043 76.086 22.1143 76.2144 22.4375 76.2144H30.6823C31.0056 76.2144 31.3156 76.086 31.5441 75.8575C31.7727 75.6289 31.9011 75.3189 31.9011 74.9957V67.2908C31.9011 67.1307 31.8696 66.9722 31.8084 66.8244C31.7471 66.6765 31.6574 66.5422 31.5442 66.429C31.4311 66.3158 31.2967 66.226 31.1489 66.1648C31.001 66.1035 30.8425 66.072 30.6825 66.072ZM29.4637 73.7769H23.6563V68.5095H29.4636L29.4637 73.7769ZM77.0977 19.5442C77.2525 19.3893 77.3627 19.1955 77.4167 18.9833C77.4707 18.7711 77.4665 18.5482 77.4046 18.3381C77.3427 18.128 77.2254 17.9385 77.0649 17.7895C76.9044 17.6404 76.7068 17.5374 76.4927 17.4911L70.7256 16.2483L73.4544 13.5195C73.5687 13.4066 73.6595 13.2722 73.7217 13.124C73.7838 12.9758 73.8161 12.8169 73.8165 12.6562C73.817 12.4955 73.7857 12.3363 73.7245 12.1878C73.6632 12.0393 73.5732 11.9043 73.4595 11.7907C73.3459 11.6771 73.211 11.5871 73.0624 11.5258C72.9139 11.4646 72.7547 11.4333 72.594 11.4338C72.4334 11.4343 72.2744 11.4665 72.1262 11.5287C71.9781 11.5909 71.8437 11.6817 71.7308 11.796L69.0021 14.5247L67.7592 8.75754C67.713 8.54339 67.61 8.34563 67.4609 8.18508C67.3119 8.02453 67.1223 7.90712 66.9122 7.84521C66.7021 7.78329 66.4791 7.77917 66.2668 7.83326C66.0545 7.88735 65.8608 7.99766 65.7059 8.15259L56.7249 17.1337C56.5809 17.2778 56.4753 17.4556 56.4177 17.651C56.3601 17.8464 56.3525 18.0531 56.3954 18.2522L57.9697 25.5571L56.8667 26.6601C53.2163 23.4135 48.4117 21.4379 43.1537 21.4379C31.7623 21.4379 22.4948 30.7054 22.4948 42.0968C22.4948 51.2334 28.4572 59.0025 36.6952 61.7205V74.9955C36.6952 75.3188 36.8236 75.6288 37.0522 75.8573C37.2807 76.0859 37.5907 76.2143 37.9139 76.2143H46.1589C46.4822 76.2143 46.7922 76.0859 47.0207 75.8573C47.2493 75.6288 47.3777 75.3188 47.3777 74.9955V62.3207C48.9767 61.987 50.5301 61.4633 52.0048 60.7607V74.9957C52.0048 75.3189 52.1332 75.6289 52.3618 75.8575C52.5904 76.086 52.9004 76.2144 53.2236 76.2144H61.4687C61.792 76.2144 62.102 76.086 62.3305 75.8575C62.5591 75.6289 62.6875 75.3189 62.6875 74.9957V50.8903C62.6876 50.7133 62.649 50.5384 62.5744 50.3778C62.4999 50.2173 62.3912 50.0749 62.2559 49.9607C63.258 47.5354 63.8125 44.8798 63.8125 42.0968C63.8125 36.8386 61.8369 32.0341 58.5904 28.3835L59.6932 27.2807L66.9982 28.855C67.1973 28.898 67.4041 28.8903 67.5995 28.8328C67.7949 28.7752 67.9728 28.6696 68.1169 28.5255L77.0977 19.5442ZM58.9177 18.3876L65.8474 11.4578L66.9505 16.5758L60.0209 23.5056L58.9177 18.3876ZM44.94 73.7769H39.1325V62.3615C40.4568 62.6239 41.8036 62.7559 43.1537 62.7556C43.7556 62.7556 44.3511 62.7282 44.9402 62.6775V73.7769H44.94ZM60.25 73.7771H54.4423V59.3899C56.7349 57.8879 58.7085 55.9481 60.25 53.6819V73.7771ZM61.3749 42.0968C61.3749 52.1441 53.2009 60.3181 43.1537 60.3181C33.1063 60.3181 24.9323 52.1441 24.9323 42.0968C24.9323 32.0494 33.1063 23.8754 43.1537 23.8754C47.7397 23.8754 51.9348 25.579 55.141 28.3857L51.9204 31.6064C49.5448 29.6178 46.4868 28.4187 43.1537 28.4187C35.6116 28.4187 29.4756 34.5547 29.4756 42.0968C29.4756 49.6388 35.6116 55.7748 43.1537 55.7748C50.6957 55.7748 56.8315 49.6388 56.8315 42.0968C56.8315 38.7636 55.6326 35.7056 53.6439 33.33L56.8644 30.1093C59.6714 33.3157 61.3749 37.5107 61.3749 42.0968ZM46.9702 42.0968C46.9702 44.2012 45.2581 45.9134 43.1537 45.9134C41.0492 45.9134 39.337 44.2012 39.337 42.0968C39.337 39.9923 41.049 38.2801 43.1537 38.2801C43.7621 38.2801 44.3374 38.4239 44.8483 38.6783L42.2919 41.2349C42.1776 41.3479 42.0867 41.4823 42.0246 41.6304C41.9624 41.7786 41.9302 41.9376 41.9297 42.0983C41.9292 42.2589 41.9605 42.4181 42.0218 42.5666C42.083 42.7152 42.1731 42.8501 42.2867 42.9637C42.4003 43.0773 42.5353 43.1674 42.6838 43.2286C42.8323 43.2899 42.9915 43.3212 43.1522 43.3207C43.3129 43.3202 43.4718 43.2879 43.62 43.2257C43.7682 43.1636 43.9026 43.0727 44.0155 42.9584L46.572 40.4019C46.8343 40.9284 46.9706 41.5086 46.9702 42.0968ZM46.6276 36.8992C45.6005 36.2092 44.391 35.8414 43.1537 35.8427C39.7051 35.8427 36.8995 38.6483 36.8995 42.0969C36.8995 45.5455 39.7051 48.3511 43.1537 48.3511C46.6021 48.3511 49.4077 45.5455 49.4077 42.0969C49.409 40.8596 49.0412 39.6501 48.3512 38.623L51.9118 35.0624C53.4629 36.9897 54.394 39.4361 54.394 42.0969C54.394 48.295 49.3516 53.3374 43.1537 53.3374C36.9557 53.3374 31.9131 48.2949 31.9131 42.0969C31.9131 35.899 36.9557 30.8564 43.1537 30.8564C45.8145 30.8564 48.2608 31.7877 50.1881 33.3388L46.6276 36.8992ZM66.8626 26.3324L61.7445 25.2294L68.6743 18.2996L73.7924 19.4026L66.8626 26.3324Z" fill="white"/>
</svg>
