<svg width="64" height="64" viewBox="0 0 64 64" fill="none" xmlns="http://www.w3.org/2000/svg">
<rect x="0.5" y="0.5" width="63" height="63" rx="13.5" fill="white" stroke="#E3E3E3"/>
<path fill-rule="evenodd" clip-rule="evenodd" d="M23.1565 46.5191L23.7725 47.6075L23.7734 47.6091C24.2349 48.4299 23.9423 49.4772 23.1262 49.9382L21.0935 51.0903L21.0915 51.0914C20.2707 51.5529 19.2235 51.2603 18.7623 50.4439L12.7846 39.8814C12.319 39.0599 12.6115 38.0117 13.4286 37.5502L15.4638 36.3981L15.4643 36.3977C16.281 35.9364 17.3287 36.2265 17.7938 37.0432L17.7947 37.0447L18.3028 37.9426L23.6935 34.8216C25.2742 33.9074 26.8882 33.3057 28.6243 33.8694C30.338 34.4251 33.136 35.6224 35.9913 36.1383C36.0196 36.1435 36.0476 36.1505 36.075 36.1594C37.4747 36.6125 38.3275 38.0266 37.9453 39.4478C37.8691 39.7312 37.761 39.9885 37.6231 40.2167C38.0024 40.1284 38.3715 39.9819 38.7333 39.7711L45.9814 35.5498C48.5607 34.0471 50.2783 34.1962 51.2516 34.8492C52.0789 35.4042 52.4606 36.3526 52.4359 37.2829C52.411 38.2218 51.9661 39.1201 51.2297 39.5735L38.0774 47.6712C36.7126 48.5136 35.2177 48.711 33.6689 48.2978L33.6682 48.2976L24.385 45.8097L23.1565 46.5191ZM22.6524 48.2399L16.6758 37.6793L16.6753 37.6783C16.5591 37.4762 16.2997 37.4033 16.0969 37.5177L14.0623 38.6695L14.0617 38.6699C13.8595 38.7842 13.7884 39.0438 13.9036 39.2471L13.9038 39.2475L19.8817 49.8103L19.882 49.8108C19.9965 50.0136 20.2568 50.0847 20.4606 49.9704L22.492 48.8191L22.4928 48.8186C22.6956 48.7041 22.7668 48.4437 22.6524 48.2399ZM22.523 45.3996L23.9726 44.5625C24.0457 44.5203 24.1265 44.4929 24.2102 44.4819C24.2939 44.4708 24.379 44.4764 24.4606 44.4983L34.0006 47.0551C35.1952 47.3737 36.3492 47.2264 37.4019 46.5767L37.4025 46.5763L50.5552 38.4783C50.9153 38.2565 51.1065 37.8126 51.1442 37.3559C51.202 36.6546 50.8702 35.8821 50.0027 35.7003C49.2228 35.5369 48.1234 35.7905 46.6288 36.6612L39.3809 40.8825C38.2346 41.5505 37.0331 41.7346 35.7239 41.5262L35.7216 41.5259L34.8221 41.3795C34.8134 41.3781 34.8048 41.3765 34.7962 41.3747L34.7953 41.3745C33.161 41.039 31.6453 40.5452 29.9635 40.0933C29.6207 40.0012 29.4171 39.648 29.5092 39.3052C29.6014 38.9624 29.9545 38.7589 30.2973 38.8511C31.9442 39.2937 33.4288 39.7789 35.0279 40.1092C35.8834 40.2053 36.5065 39.8462 36.703 39.1142L36.7031 39.1139C36.9028 38.3711 36.4391 37.649 35.7161 37.3956C32.8127 36.8637 29.9703 35.658 28.2274 35.0929L28.2272 35.0928C26.8513 34.6461 25.5902 35.2106 24.3376 35.935L18.9364 39.0621L22.523 45.3996ZM15.846 38.8286C16.3074 38.7599 16.7358 39.0785 16.8045 39.5398C16.8704 40.0012 16.5519 40.4323 16.0905 40.4982C15.6291 40.5669 15.2007 40.2455 15.1321 39.7843C15.0662 39.3229 15.3847 38.8945 15.846 38.8286ZM25.7394 31.5433L20.8058 31.5425C16.2719 31.5425 12.5626 27.8332 12.5625 23.2993C12.5614 18.7664 16.2707 15.0569 20.8047 15.0569H28.4418C28.6195 15.0569 28.7803 15.1289 28.8967 15.2454C28.9564 15.305 29.0038 15.3759 29.0362 15.4539C29.0685 15.532 29.085 15.6156 29.0849 15.7V19.561C29.0851 19.6457 29.0684 19.7295 29.036 19.8076C29.0036 19.8858 28.956 19.9567 28.896 20.0164C28.8363 20.0764 28.7654 20.1239 28.6872 20.1564C28.6091 20.1888 28.5253 20.2054 28.4407 20.2053H20.8058C19.103 20.2053 17.7109 21.5975 17.7109 23.3003V23.3006C17.7099 25.0025 19.1031 26.3953 20.8058 26.3953H28.4407C28.6112 26.3953 28.7748 26.4631 28.8954 26.5836C29.016 26.7042 29.0837 26.8677 29.0838 27.0382L29.0849 30.9004C29.085 30.9848 29.0684 31.0685 29.0361 31.1465C29.0038 31.2246 28.9564 31.2955 28.8967 31.3553C28.8369 31.415 28.766 31.4624 28.688 31.4947C28.6099 31.5271 28.5263 31.5437 28.4418 31.5437H25.7622C25.7545 31.5437 25.747 31.5436 25.7394 31.5433ZM25.119 16.3432H20.8047C16.9783 16.3432 13.8477 19.4736 13.8488 23.299V23.2992C13.8488 27.1257 16.9793 30.2563 20.8059 30.2563L25.1188 30.2569L25.1181 27.6816H20.8058C18.3954 27.6816 16.4233 25.7094 16.4246 23.3002C16.4247 20.8897 18.3954 18.919 20.8058 18.919H25.119V16.3432ZM27.7985 16.3432H26.4053V18.9179H27.7978L27.7985 16.3432ZM27.7985 30.2574L27.7978 27.6816H26.4043L26.4051 30.2571L27.7985 30.2574ZM33.2413 22.5609L30.6589 22.5472C30.4883 22.5462 30.3251 22.4775 30.2052 22.3563C30.0852 22.2351 30.0183 22.0712 30.0192 21.9006C30.0202 21.7301 30.0888 21.5669 30.21 21.447C30.3313 21.327 30.4952 21.2601 30.6657 21.2609L33.4268 21.2756C33.5063 20.9049 33.6078 20.5392 33.7307 20.1806H31.2066C30.8516 20.1806 30.5634 19.8924 30.5634 19.5375C30.5634 19.1826 30.8516 18.8944 31.2066 18.8944H34.2801C34.4739 18.5192 34.6917 18.1584 34.9315 17.8141H30.6622C30.3073 17.8141 30.0191 17.5259 30.0191 17.171C30.0191 16.816 30.3073 16.5278 30.6622 16.5278H36.0041C37.7453 14.7742 40.1583 13.6885 42.8252 13.6885C48.1342 13.6885 52.437 17.9913 52.437 23.3003C52.437 28.6093 48.1342 32.9122 42.8252 32.9122C40.1583 32.9122 37.7453 31.8264 36.0041 30.0728H31.2066C30.8516 30.0728 30.5634 29.7846 30.5634 29.4297C30.5634 29.0747 30.8516 28.7865 31.2066 28.7865H34.9315C34.6909 28.4411 34.4733 28.0802 34.2801 27.7062H30.6622C30.3073 27.7062 30.0191 27.4181 30.0191 27.0631C30.0191 26.7081 30.3073 26.4199 30.6622 26.4199H33.7307C33.5859 25.9975 33.4709 25.5653 33.3866 25.1268H31.2066C30.8516 25.1268 30.5634 24.8385 30.5634 24.4836C30.5634 24.1286 30.8516 23.8405 31.2066 23.8405H33.2282C33.2046 23.4141 33.209 22.9867 33.2413 22.5609ZM37.2816 29.5125C38.7537 30.827 40.6961 31.6259 42.8252 31.6259C44.9543 31.6259 46.8965 30.827 48.3686 29.5125C47.9312 26.845 45.6151 24.8093 42.8252 24.8093C40.0352 24.8093 37.7191 26.845 37.2816 29.5125ZM49.4206 28.3822C50.5054 26.9763 51.1507 25.2137 51.1507 23.3003C51.1507 18.7017 47.4238 14.9748 42.8252 14.9748C38.2266 14.9748 34.4996 18.7017 34.4996 23.3003C34.4996 25.2137 35.1448 26.9763 36.2297 28.3822C36.8646 26.3345 38.4263 24.6941 40.424 23.9524C39.5653 23.2523 39.0147 22.187 39.0147 20.9988C39.0147 18.9023 40.7287 17.1883 42.8252 17.1883C44.9216 17.1883 46.6357 18.9023 46.6357 20.9988C46.6357 22.187 46.0851 23.2523 45.2263 23.9524C47.224 24.6941 48.7858 26.3345 49.4206 28.3822ZM42.8252 23.523C44.2139 23.523 45.3494 22.3876 45.3494 20.9988C45.3494 19.61 44.2139 18.4745 42.8252 18.4745C41.4364 18.4745 40.3009 19.61 40.3009 20.9988C40.3009 22.3876 41.4364 23.523 42.8252 23.523Z" fill="#DC1300"/>
</svg>
