<svg width="18" height="18" viewBox="0 0 18 18" fill="none" xmlns="http://www.w3.org/2000/svg">
<path fill-rule="evenodd" clip-rule="evenodd" d="M0 9.00098C0 5.57358 0 3.85988 0.81672 2.62555C1.18143 2.07436 1.65347 1.60232 2.20465 1.23762C3.43898 0.420898 5.15268 0.420898 8.58008 0.420898C12.0075 0.420898 13.7212 0.420898 14.9555 1.23762C15.5067 1.60232 15.9787 2.07436 16.3434 2.62555C17.1602 3.85988 17.1602 5.57358 17.1602 9.00098C17.1602 12.4284 17.1602 14.1421 16.3434 15.3764C15.9787 15.9276 15.5067 16.3996 14.9555 16.7643C13.7212 17.5811 12.0075 17.5811 8.58008 17.5811C5.15268 17.5811 3.43898 17.5811 2.20465 16.7643C1.65347 16.3996 1.18143 15.9276 0.81672 15.3764C0 14.1421 0 12.4284 0 9.00098ZM13.0227 9.00156C13.0227 11.4548 11.0339 13.4436 8.58068 13.4436C6.12743 13.4436 4.13867 11.4548 4.13867 9.00156C4.13867 6.54831 6.12743 4.55955 8.58068 4.55955C11.0339 4.55955 13.0227 6.54831 13.0227 9.00156ZM8.58068 11.9407C10.2039 11.9407 11.5198 10.6248 11.5198 9.00156C11.5198 7.37831 10.2039 6.0624 8.58068 6.0624C6.95743 6.0624 5.64152 7.37831 5.64152 9.00156C5.64152 10.6248 6.95743 11.9407 8.58068 11.9407ZM13.198 5.37945C13.7745 5.37945 14.2418 4.91216 14.2418 4.33571C14.2418 3.75927 13.7745 3.29197 13.198 3.29197C12.6216 3.29197 12.1543 3.75927 12.1543 4.33571C12.1543 4.91216 12.6216 5.37945 13.198 5.37945Z" fill="#FFC727"/>
</svg>
