<svg width="22" height="20" viewBox="0 0 22 20" fill="none" xmlns="http://www.w3.org/2000/svg">
<path d="M0.160156 2.70805C0.160156 2.0683 0.396649 1.54053 0.869616 1.12471C1.34258 0.708883 1.95746 0.500977 2.71421 0.500977C3.45746 0.500977 4.0588 0.705678 4.51826 1.11512C4.99123 1.53734 5.22772 2.0875 5.22772 2.76562C5.22772 3.37976 4.998 3.89154 4.53853 4.30098C4.06557 4.7232 3.44394 4.93431 2.67367 4.93431H2.6534C1.91015 4.93431 1.30881 4.7232 0.849345 4.30098C0.389879 3.87875 0.160156 3.34777 0.160156 2.70805ZM0.42367 19.501V6.68077H4.92367V19.501H0.42367ZM7.41691 19.501H11.9169V12.3424C11.9169 11.8946 11.971 11.5491 12.0791 11.306C12.2683 10.871 12.5554 10.5032 12.9406 10.2025C13.3257 9.90181 13.8088 9.75148 14.3899 9.75148C15.9034 9.75148 16.6602 10.7175 16.6602 12.6495V19.501H21.1602V12.1505C21.1602 10.2569 20.6872 8.82067 19.7412 7.84189C18.7953 6.8631 17.5453 6.3737 15.9912 6.3737C14.248 6.3737 12.8899 7.0838 11.9169 8.50401V8.54239H11.8966L11.9169 8.50401V6.68077H7.41691C7.44393 7.0902 7.45745 8.36325 7.45745 10.5C7.45745 12.6367 7.44393 15.637 7.41691 19.501Z" fill="#FFC727"/>
</svg>
