<svg width="107" height="78" viewBox="0 0 107 78" fill="none" xmlns="http://www.w3.org/2000/svg">
<circle cx="23.1028" cy="49.3235" r="22.9412" fill="#F9D93C" fill-opacity="0.12"/>
<circle cx="97.6618" cy="55.0588" r="9.17647" fill="#F9E03C" fill-opacity="0.21"/>
<path d="M40.7955 31.8212C40.9383 31.9846 41.1275 32.1006 41.338 32.1536C41.5484 32.2067 41.77 32.1941 41.9731 32.1178C42.1763 32.0415 42.3514 31.9051 42.475 31.7267C42.5986 31.5483 42.6648 31.3365 42.6648 31.1195V25.8039H44.3176C46.3744 25.8039 48.0477 24.1306 48.0477 22.0738V7.7006C48.0477 5.6438 46.3744 3.97046 44.3176 3.97046H24.3395C22.2827 3.97046 20.6094 5.6438 20.6094 7.7006V22.0738C20.6094 24.1306 22.2827 25.8039 24.3395 25.8039H35.5357L40.7955 31.8212ZM22.742 22.0738V7.7006C22.742 6.8199 23.4587 6.10327 24.3394 6.10327H44.3176C45.1984 6.10327 45.9149 6.8199 45.9149 7.7006V22.0738C45.9149 22.9545 45.1983 23.6711 44.3176 23.6711H41.5984C41.3156 23.6711 41.0443 23.7834 40.8443 23.9834C40.6443 24.1834 40.532 24.4547 40.532 24.7375V28.2792L36.8226 24.0358C36.7225 23.9213 36.5991 23.8295 36.4606 23.7666C36.3221 23.7036 36.1718 23.6711 36.0197 23.6711H24.3395C23.4587 23.6711 22.742 22.9545 22.742 22.0738ZM74.605 38.3447H84.6731L89.3944 43.7457C89.5371 43.9092 89.7264 44.0252 89.9368 44.0782C90.1473 44.1312 90.3689 44.1187 90.572 44.0423C90.7752 43.9661 90.9503 43.8297 91.0738 43.6513C91.1974 43.4729 91.2636 43.261 91.2637 43.044V38.3447H92.6538C94.5688 38.3447 96.1266 36.7867 96.1266 34.8719V21.8867C96.1266 19.9717 94.5686 18.4137 92.6538 18.4137H74.605C72.6901 18.4137 71.132 19.9717 71.132 21.8867V34.8719C71.132 36.7867 72.6901 38.3447 74.605 38.3447ZM73.2649 21.8867C73.2649 21.1477 73.866 20.5465 74.605 20.5465H92.6538C93.3928 20.5465 93.9938 21.1477 93.9938 21.8867V34.8719C93.9938 35.6109 93.3927 36.2119 92.6538 36.2119H90.1973C89.9144 36.2119 89.6432 36.3242 89.4432 36.5242C89.2432 36.7242 89.1309 36.9955 89.1309 37.2783V40.2037L85.9603 36.5764C85.8602 36.4619 85.7368 36.3701 85.5983 36.3072C85.4598 36.2443 85.3095 36.2117 85.1574 36.2117H74.6052C73.8662 36.2117 73.265 35.6107 73.265 34.8717V21.8865L73.2649 21.8867ZM97.3861 70.5396C97.0486 66.7929 95.3315 63.3225 92.5513 60.7677C90.897 59.2472 88.9241 58.1152 86.7765 57.4545C88.7736 56.0479 90.0819 53.7264 90.0819 51.1036C90.0819 46.822 86.5984 43.3385 82.3168 43.3385C78.0352 43.3385 74.5517 46.8219 74.5517 51.1036C74.5517 53.7264 75.8602 56.0481 77.8571 57.4545C76.0344 58.0162 74.3348 58.9188 72.8487 60.1143H70.4191L70.4194 60.1108C70.578 56.3558 70.7037 51.8582 70.4346 46.9724L70.4331 46.9494C70.2137 44.0963 69.5096 42.8088 67.5348 41.651C66.2235 40.8821 64.127 40.3101 61.9029 39.7414L58.1126 38.809C58.7896 38.2845 59.4081 37.6319 59.941 36.8599C61.9437 33.9583 62.3071 29.9588 60.8245 27.1339C59.551 24.7073 57.112 23.3711 53.9568 23.3711C50.8016 23.3711 48.3627 24.7073 47.0892 27.1337C45.6065 29.9588 45.9697 33.9583 47.9724 36.8599C48.5053 37.6319 49.1239 38.2845 49.8007 38.809L46.001 39.7437C43.7863 40.3101 41.6899 40.8821 40.3787 41.651C38.404 42.8088 37.6998 44.0963 37.4804 46.9492L37.4789 46.9724C37.2098 51.8573 37.3357 56.3554 37.4941 60.1106L37.4944 60.1143H33.8682C33.5853 60.1143 33.3141 60.2267 33.1141 60.4267C32.9141 60.6266 32.8017 60.8979 32.8017 61.1807V66.0315C32.8017 66.3143 32.9141 66.5856 33.1141 66.7856C33.3141 66.9855 33.5853 67.0979 33.8682 67.0979H67.9691C67.5952 68.2131 67.353 69.3682 67.2474 70.5396C67.2446 70.5715 67.2431 70.6034 67.2432 70.6353V72.963C67.2432 73.2458 67.3555 73.5171 67.5555 73.717C67.7555 73.917 68.0267 74.0294 68.3096 74.0294H96.3241C96.6069 74.0294 96.8781 73.917 97.0781 73.717C97.2781 73.5171 97.3905 73.2458 97.3905 72.963V70.6353C97.3905 70.6033 97.3888 70.5715 97.3861 70.5396ZM76.6844 51.1036C76.6844 47.998 79.211 45.4713 82.3167 45.4713C85.4223 45.4713 87.949 47.998 87.949 51.1036C87.949 54.2093 85.4223 56.7361 82.3167 56.7361C79.211 56.7361 76.6844 54.2095 76.6844 51.1036ZM66.4559 43.4906C67.6891 44.2137 68.1303 44.8377 68.3056 47.1013C68.5689 51.8914 68.4447 56.3199 68.2884 60.0211C68.287 60.0523 68.2835 60.0832 68.2812 60.1143H64.4038V51.5707C64.4038 51.2879 64.2914 51.0166 64.0914 50.8167C63.8915 50.6167 63.6202 50.5043 63.3374 50.5043C63.0545 50.5043 62.7833 50.6167 62.5833 50.8167C62.3833 51.0166 62.271 51.2879 62.271 51.5707V60.1143H55.3559L58.3664 55.897C58.5249 55.6749 58.5923 55.4006 58.5547 55.1304L56.5348 40.6172L56.5462 40.6198L61.3837 41.8097C62.9413 42.2081 65.2953 42.81 66.4559 43.4906ZM53.5766 40.2955C53.6811 40.2913 53.7857 40.2889 53.8904 40.2881C53.91 40.2883 53.9294 40.2901 53.949 40.2901H53.9621C53.9819 40.2901 54.0018 40.2883 54.0216 40.2881C54.1265 40.2889 54.2315 40.2913 54.3368 40.2955L56.3838 55.0038L53.9567 58.4036L51.5295 55.0038L53.5766 40.2955ZM48.9775 28.1249C49.8775 26.4101 51.5991 25.5038 53.9567 25.5038C56.3142 25.5038 58.0358 26.4101 58.9359 28.1249C60.0478 30.2435 59.7323 33.4075 58.1857 35.6482C57.085 37.2431 55.6123 38.1294 54.0299 38.155C53.9806 38.1547 53.9313 38.1547 53.882 38.155C52.3016 38.1297 50.8284 37.2431 49.7276 35.6482C48.1813 33.4075 47.8657 30.2432 48.9775 28.1249ZM39.6249 60.0209C39.4688 56.3194 39.3446 51.8908 39.6077 47.1013C39.7831 44.8377 40.2242 44.2137 41.4575 43.4906C42.6182 42.81 44.9719 42.2081 46.5198 41.812L51.3668 40.6199L51.3784 40.6172L49.3585 55.1304C49.3208 55.4006 49.3882 55.6749 49.5468 55.897L52.5574 60.1143H45.6423V51.5707C45.6423 51.2879 45.53 51.0166 45.33 50.8167C45.13 50.6167 44.8588 50.5043 44.5759 50.5043C44.2931 50.5043 44.0219 50.6167 43.8219 50.8167C43.6219 51.0166 43.5095 51.2879 43.5095 51.5707V60.1143H39.6322C39.6299 60.0831 39.6263 60.0522 39.6251 60.0209H39.6249ZM34.9346 64.9651V62.2471H70.6758C69.9793 63.0855 69.3757 63.9968 68.8754 64.9651H34.9346ZM95.2575 71.8966H69.3758V70.6842C70.0042 63.9707 75.5593 58.914 82.3167 58.914C89.074 58.914 94.6291 63.9706 95.2575 70.6842V71.8966ZM38.1437 22.181C38.4724 22.181 38.7991 22.0776 39.0797 21.8736C39.5853 21.5063 39.8265 20.8966 39.709 20.2828L39.0559 16.8703L41.5898 14.4938C42.046 14.0661 42.2093 13.431 42.0161 12.8369C41.8229 12.2418 41.3175 11.8241 40.6976 11.7465L37.2502 11.313L35.7728 8.16844C35.5069 7.60264 34.9536 7.25118 34.3285 7.25118C33.7035 7.25118 33.1502 7.60264 32.8843 8.16844L31.4069 11.313L27.9604 11.7464C27.3396 11.8241 26.8341 12.2418 26.641 12.8364C26.4476 13.431 26.611 14.0661 27.0669 14.4935L29.6012 16.8703L28.9481 20.2827C28.8305 20.8971 29.0718 21.5067 29.5771 21.8733C30.0824 22.2407 30.7366 22.2822 31.2849 21.9805L34.3285 20.3048L37.3727 21.9808C37.6086 22.1116 37.8739 22.1806 38.1437 22.181ZM33.8142 18.1534L31.2577 19.5609L31.8063 16.6945C31.8401 16.5179 31.8287 16.3356 31.7732 16.1646C31.7176 15.9935 31.6197 15.8393 31.4885 15.7163L29.36 13.72L32.2554 13.3559C32.4339 13.3334 32.6037 13.2662 32.7492 13.1605C32.8947 13.0548 33.0111 12.914 33.0875 12.7512L34.3285 10.1099L35.5695 12.7512C35.646 12.914 35.7624 13.0548 35.9079 13.1605C36.0534 13.2662 36.2232 13.3334 36.4016 13.3559L39.2971 13.72L37.1685 15.7163C37.0373 15.8393 36.9394 15.9935 36.8839 16.1645C36.8283 16.3356 36.8169 16.5179 36.8507 16.6945L37.3993 19.5609L34.8429 18.1534C34.6853 18.0666 34.5084 18.0211 34.3285 18.0211C34.1487 18.0211 33.9718 18.0666 33.8142 18.1534ZM90.8274 28.3791C90.8274 28.662 90.715 28.9332 90.515 29.1332C90.315 29.3332 90.0438 29.4455 89.7609 29.4455H83.6293C83.3464 29.4455 83.0752 29.3332 82.8752 29.1332C82.6752 28.9332 82.5629 28.662 82.5629 28.3791C82.5629 28.0963 82.6752 27.8251 82.8752 27.6251C83.0752 27.4251 83.3464 27.3127 83.6293 27.3127H89.7609C90.0438 27.3127 90.315 27.4251 90.515 27.6251C90.715 27.8251 90.8274 28.0963 90.8274 28.3791ZM76.4313 24.0257C76.4313 23.7429 76.5437 23.4717 76.7437 23.2717C76.9437 23.0717 77.2149 22.9593 77.4977 22.9593H89.7609C90.0438 22.9593 90.315 23.0717 90.515 23.2717C90.715 23.4717 90.8274 23.7429 90.8274 24.0257C90.8274 24.3086 90.715 24.5798 90.515 24.7798C90.315 24.9798 90.0438 25.0922 89.7609 25.0922H77.4977C77.2149 25.0922 76.9437 24.9798 76.7437 24.7798C76.5437 24.5798 76.4313 24.3086 76.4313 24.0257ZM76.4313 28.3791C76.4313 28.0963 76.5437 27.8251 76.7437 27.6251C76.9437 27.4251 77.2149 27.3127 77.4977 27.3127H79.6374C79.9202 27.3127 80.1915 27.4251 80.3915 27.6251C80.5914 27.8251 80.7038 28.0963 80.7038 28.3791C80.7038 28.662 80.5914 28.9332 80.3915 29.1332C80.1915 29.3332 79.9202 29.4455 79.6374 29.4455H77.4977C77.2149 29.4455 76.9437 29.3332 76.7437 29.1332C76.5437 28.9332 76.4313 28.662 76.4313 28.3791ZM76.4313 32.7325C76.4313 32.4497 76.5437 32.1784 76.7437 31.9784C76.9437 31.7784 77.2149 31.6661 77.4977 31.6661H89.7609C90.0438 31.6661 90.315 31.7784 90.515 31.9784C90.715 32.1784 90.8274 32.4497 90.8274 32.7325C90.8274 33.0153 90.715 33.2866 90.515 33.4866C90.315 33.6866 90.0438 33.7989 89.7609 33.7989H77.4977C77.2149 33.7989 76.9437 33.6866 76.7437 33.4866C76.5437 33.2866 76.4313 33.0153 76.4313 32.7325Z" fill="white"/>
</svg>
