<svg width="107" height="78" viewBox="0 0 107 78" fill="none" xmlns="http://www.w3.org/2000/svg">
<circle cx="23.1028" cy="49.3235" r="22.9412" fill="#F93C3C" fill-opacity="0.12"/>
<circle cx="97.6618" cy="55.0588" r="9.17647" fill="#F93C3C" fill-opacity="0.21"/>
<path d="M57.5021 71.6067C57.5021 71.93 57.3737 72.24 57.1451 72.4685C56.9166 72.6971 56.6066 72.8255 56.2833 72.8255H50.7601C50.4369 72.8255 50.1269 72.6971 49.8983 72.4685C49.6698 72.24 49.5414 71.93 49.5414 71.6067C49.5414 71.2835 49.6698 70.9735 49.8983 70.745C50.1269 70.5164 50.4369 70.388 50.7601 70.388H56.2833C56.6066 70.388 56.9166 70.5164 57.1451 70.745C57.3737 70.9735 57.5021 71.2835 57.5021 71.6067ZM89.9615 42.9102C90.1089 43.4711 90.0295 44.0674 89.7405 44.5701C89.4515 45.0729 88.9762 45.4416 88.4174 45.5965L87.1247 45.9403C86.5638 46.0903 85.9663 46.0116 85.4633 45.7215C84.9604 45.4314 84.593 44.9536 84.442 44.393L84.2629 43.7248C81.6367 42.8926 78.8396 42.7551 76.1444 43.3258L77.8915 49.8504C77.9329 50.005 77.9435 50.1663 77.9227 50.325C77.9018 50.4837 77.8498 50.6368 77.7698 50.7754C77.6897 50.9141 77.5832 51.0356 77.4562 51.133C77.3291 51.2305 77.1842 51.3019 77.0295 51.3433L74.7503 51.9536V70.6135C74.7484 72.2487 74.098 73.8165 72.9416 74.9728C71.7853 76.1291 70.2175 76.7795 68.5822 76.7812H38.4611C36.8258 76.7794 35.2581 76.129 34.1018 74.9728C32.9455 73.8165 32.295 72.2487 32.2932 70.6135V37.2066H27.1034C25.8964 37.2052 24.7392 36.7251 23.8857 35.8717C23.0322 35.0182 22.5522 33.861 22.5508 32.654V21.5938C22.5522 20.3868 23.0322 19.2296 23.8857 18.3761C24.7392 17.5226 25.8964 17.0425 27.1034 17.0412H32.2932V11.9296C32.295 10.2943 32.9455 8.72658 34.1018 7.57029C35.2581 6.414 36.8258 5.76361 38.4611 5.76179H63.404C63.4079 4.55647 63.889 3.40175 64.7422 2.55032C65.5953 1.6989 66.7511 1.22011 67.9564 1.21875H81.7927C82.9997 1.22008 84.157 1.70015 85.0105 2.55365C85.864 3.40714 86.3441 4.56435 86.3455 5.77139V16.8315C86.3447 18.0392 85.865 19.1971 85.0115 20.0515C84.158 20.9058 83.0005 21.3867 81.7928 21.3886H74.7503V30.6596C76.6537 29.7787 78.3619 28.5265 79.7749 26.9766L79.5961 26.3095C79.447 25.7476 79.5269 25.1495 79.8182 24.6464C80.1095 24.1434 80.5884 23.7764 81.15 23.6259L82.4296 23.2813C82.9919 23.1318 83.5905 23.2114 84.0941 23.5027C84.5978 23.7941 84.9652 24.2733 85.1159 24.8352L86.5085 30.0309C87.3978 30.0642 88.2531 30.3814 88.949 30.9361C89.6449 31.4908 90.1449 32.2538 90.3756 33.1133C90.6055 33.9727 90.5541 34.8831 90.2288 35.7111C89.9035 36.5391 89.3214 37.241 88.568 37.7141L89.9615 42.9102ZM87.2248 32.7L87.8532 35.0442C87.966 34.8496 88.039 34.6344 88.068 34.4114C88.097 34.1883 88.0815 33.9616 88.0223 33.7446C87.9052 33.3046 87.6184 32.9289 87.2248 32.7ZM73.1496 41.5649L71.2315 34.4015L65.6245 35.9041C65.4859 35.9428 65.3682 36.0345 65.2967 36.1594C65.2253 36.2843 65.2059 36.4323 65.2427 36.5713L66.8793 42.6814C66.9169 42.8208 67.0082 42.9397 67.1331 43.012C67.2581 43.0844 67.4066 43.1044 67.5463 43.0676L73.1496 41.5649ZM65.8412 16.8309C65.8413 17.3923 66.064 17.9307 66.4605 18.3281C66.8571 18.7254 67.395 18.9493 67.9564 18.9505H69.3732C69.6964 18.9505 70.0064 19.0789 70.235 19.3075C70.4635 19.536 70.5919 19.846 70.5919 20.1692V20.9697L72.1466 19.3304C72.2605 19.2104 72.3976 19.1148 72.5497 19.0495C72.7017 18.9841 72.8655 18.9505 73.0309 18.9505H81.793C82.3543 18.9492 82.8923 18.7254 83.2888 18.328C83.6853 17.9307 83.908 17.3923 83.908 16.8309V5.77078C83.9072 5.21009 83.684 4.6726 83.2875 4.2762C82.891 3.8798 82.3534 3.65685 81.7927 3.65625H67.9564C67.3956 3.6569 66.858 3.87995 66.4615 4.27647C66.0649 4.673 65.8419 5.21062 65.8412 5.77139V16.8309ZM49.0921 8.19929C49.4637 8.61504 49.8372 8.87981 50.2722 8.87981H57.0781C57.4453 8.87981 57.6829 8.70614 58.0478 8.19929H49.0921ZM27.1034 34.7691H35.8656C36.0312 34.7692 36.1951 34.803 36.3472 34.8684C36.4993 34.9339 36.6364 35.0297 36.7503 35.15L38.3042 36.7906V35.9882C38.3042 35.6649 38.4326 35.3549 38.6612 35.1264C38.8897 34.8978 39.1997 34.7694 39.5229 34.7694H40.9397C41.5005 34.7688 42.0381 34.5457 42.4347 34.1492C42.8312 33.7527 43.0542 33.215 43.0549 32.6543V21.5941C43.0542 21.0333 42.8312 20.4957 42.4347 20.0992C42.0381 19.7027 41.5005 19.4796 40.9397 19.479H27.1034C26.5426 19.4796 26.005 19.7027 25.6085 20.0992C25.212 20.4957 24.9889 21.0333 24.9883 21.5941V32.6543C24.989 33.215 25.2121 33.7525 25.6086 34.149C26.0051 34.5455 26.5427 34.7685 27.1034 34.7691ZM34.7307 37.2066V66.428H39.9327V56.419C39.9327 52.3799 43.43 49.0938 47.7285 49.0938H48.7797C48.3489 48.6268 47.9647 48.1188 47.6325 47.5771C46.4262 45.6193 45.706 42.9763 45.706 40.5053C45.7155 38.231 46.6257 36.053 48.2373 34.4482C49.849 32.8433 52.0307 31.9423 54.3051 31.9423C56.5795 31.9423 58.7612 32.8433 60.3728 34.4482C61.9844 36.053 62.8946 38.231 62.9042 40.5053C62.9042 43.6655 61.8501 46.9423 59.8346 49.0938H60.8821C65.1807 49.0938 68.6779 52.3799 68.6779 56.419V66.428H72.3123V51.0824L69.492 45.0692L68.1765 45.4221C67.9238 45.4898 67.6633 45.5242 67.4017 45.5244C66.7454 45.5226 66.108 45.3047 65.5879 44.9045C65.0678 44.5043 64.6939 43.944 64.5239 43.3101L62.8876 37.2011C62.6855 36.4385 62.7929 35.6269 63.1865 34.9431C63.5801 34.2594 64.2279 33.7588 64.9889 33.5505L71.7776 31.7312C71.9581 31.6828 72.1356 31.631 72.3123 31.5789V22.6972L70.258 24.8643C70.0903 25.0412 69.8734 25.1637 69.6353 25.216C69.3973 25.2684 69.149 25.2481 68.9226 25.1579C68.6961 25.0677 68.5019 24.9117 68.3651 24.71C68.2283 24.5083 68.155 24.2702 68.1549 24.0264V21.388H67.9568C66.7492 21.3861 65.5917 20.9052 64.7382 20.0509C63.8847 19.1965 63.405 18.0385 63.4042 16.8309V8.19929H61.444C61.3046 8.19409 61.1662 8.22503 61.0423 8.28909C60.9184 8.35316 60.8132 8.44817 60.7368 8.56492C60.6375 8.70538 60.5388 8.85727 60.4356 9.01799C59.8442 9.93388 58.9504 11.3184 57.0781 11.3184H50.2722C48.2367 11.3184 47.0746 9.65448 46.3802 8.66044L46.3114 8.56172C46.2338 8.44639 46.1281 8.35271 46.0043 8.2895C45.8805 8.22628 45.7427 8.1956 45.6037 8.20036H38.4611C37.4724 8.20165 36.5246 8.59495 35.8254 9.29402C35.1263 9.99309 34.7328 10.9409 34.7314 11.9296V17.0416H40.9405C42.1475 17.043 43.3047 17.5231 44.1582 18.3766C45.0117 19.2301 45.4918 20.3873 45.4931 21.5943V32.6544C45.4918 33.8614 45.0117 35.0186 44.1582 35.8721C43.3047 36.7256 42.1475 37.2057 40.9405 37.2071H40.7425V39.8486C40.7424 40.0924 40.6692 40.3305 40.5323 40.5323C40.3954 40.7341 40.2012 40.8902 39.9747 40.9804C39.7482 41.0706 39.4999 41.0908 39.2618 41.0384C39.0237 40.986 38.8067 40.8634 38.639 40.6864L35.3408 37.2066H34.7307ZM63.2759 60.1887V66.428H66.2408V56.419C66.2408 53.7239 63.8372 51.5313 60.8826 51.5313H47.7285C44.7739 51.5313 42.3702 53.7239 42.3702 56.419V66.428H45.3307V60.1887C45.3307 59.8655 45.4591 59.5555 45.6877 59.3269C45.9163 59.0984 46.2263 58.97 46.5495 58.97C46.8727 58.97 47.1827 59.0984 47.4113 59.3269C47.6398 59.5555 47.7682 59.8655 47.7682 60.1887V66.428H60.8384V60.1887C60.8384 59.8655 60.9668 59.5555 61.1954 59.3269C61.4239 59.0984 61.7339 58.97 62.0572 58.97C62.3804 58.97 62.6904 59.0984 62.919 59.3269C63.1475 59.5555 63.2759 59.8655 63.2759 60.1887ZM54.3056 49.0935C57.8822 49.0935 59.6695 45.7493 60.2489 42.7103C57.778 42.4043 55.4733 41.7946 52.5972 39.6999L48.2918 42.3068C48.7856 45.4451 50.5697 49.0935 54.3056 49.0935ZM52.0419 37.1871C52.2538 37.0588 52.4998 36.9982 52.747 37.0132C52.9942 37.0282 53.231 37.1182 53.4258 37.2712C56.1376 39.4001 58.1156 39.9854 60.4615 40.2818C60.4059 38.7561 59.7857 37.3054 58.7212 36.211C57.6566 35.1166 56.2236 34.4565 54.7 34.3586C53.1764 34.2608 51.6708 34.7322 50.475 35.6815C49.2793 36.6308 48.4786 37.9903 48.2283 39.4963L52.0419 37.1871ZM72.3128 70.6141V68.8655H34.7314V70.6135C34.7326 71.6023 35.1258 72.5504 35.825 73.2497C36.5242 73.949 37.4722 74.3425 38.4611 74.3438H68.5822C69.5712 74.3427 70.5195 73.9494 71.2189 73.25C71.9183 72.5507 72.3117 71.6025 72.3128 70.6135V70.6141ZM75.2217 49.3041L73.7802 43.9201L71.8841 44.4285L74.2881 49.5541L75.2217 49.3041ZM83.5347 41.0079L80.5043 29.6988C78.52 31.5375 76.1545 32.916 73.5765 33.7359L75.5138 40.9698C78.1588 40.4028 80.8952 40.4156 83.5347 41.0073V41.0079ZM87.5443 43.3074L82.8248 25.6987L82.0145 25.917L86.7323 43.5228L87.5443 43.3074ZM95.407 31.7597C95.3233 31.4475 95.1189 31.1814 94.8389 31.0199C94.5589 30.8584 94.2263 30.8147 93.9141 30.8985L92.0311 31.4038C91.8758 31.4446 91.7301 31.5157 91.6023 31.613C91.4745 31.7103 91.3673 31.8319 91.2867 31.9708C91.2061 32.1097 91.1537 32.2632 91.1326 32.4224C91.1115 32.5816 91.122 32.7434 91.1637 32.8985C91.2053 33.0536 91.2772 33.1989 91.3751 33.3262C91.4731 33.4534 91.5953 33.56 91.7346 33.6399C91.8739 33.7198 92.0276 33.7713 92.187 33.7916C92.3463 33.8119 92.508 33.8004 92.6629 33.758L94.5457 33.2527C94.7003 33.2112 94.8453 33.1397 94.9722 33.0422C95.0992 32.9447 95.2057 32.8232 95.2857 32.6845C95.3657 32.5458 95.4176 32.3927 95.4384 32.234C95.4592 32.0753 95.4486 31.914 95.407 31.7594V31.7597ZM94.026 37.2034L92.3375 36.2316C92.0573 36.0704 91.7246 36.0271 91.4125 36.1112C91.1004 36.1953 90.8345 36.3999 90.6733 36.6801C90.5121 36.9603 90.4687 37.293 90.5528 37.6051C90.637 37.9172 90.8416 38.1831 91.1218 38.3443L92.8103 39.316C93.0903 39.4733 93.421 39.5138 93.7306 39.4287C94.0402 39.3436 94.3037 39.1398 94.4639 38.8615C94.6241 38.5831 94.6679 38.2529 94.5859 37.9424C94.5039 37.6319 94.3027 37.3664 94.026 37.2034ZM88.8483 29.8746C89.1282 30.0363 89.4608 30.0803 89.773 29.9968C90.0853 29.9133 90.3516 29.7091 90.5133 29.4293L91.4894 27.7409C91.5695 27.6023 91.6215 27.4493 91.6424 27.2906C91.6634 27.1319 91.6529 26.9707 91.6116 26.816C91.5702 26.6614 91.4988 26.5164 91.4014 26.3894C91.304 26.2624 91.1826 26.1558 91.044 26.0757C90.7641 25.9139 90.4314 25.87 90.1192 25.9535C89.8069 26.037 89.5406 26.2412 89.3788 26.5211L88.4029 28.2095C88.3228 28.3481 88.2708 28.5011 88.2498 28.6598C88.2289 28.8184 88.2394 28.9797 88.2807 29.1343C88.3221 29.2889 88.3935 29.4339 88.4909 29.5609C88.5883 29.6879 88.7098 29.7945 88.8483 29.8746ZM36.7052 33.1776L34.0212 31.8572L31.3331 33.1777C31.134 33.2756 30.9119 33.3172 30.6908 33.2982C30.4698 33.2791 30.2581 33.2 30.0787 33.0695C29.8993 32.939 29.7589 32.762 29.6726 32.5576C29.5864 32.3532 29.5576 32.1291 29.5894 31.9095L30.0176 28.949L27.9305 26.8009C27.7759 26.6418 27.6676 26.4434 27.6174 26.2273C27.5673 26.0111 27.577 25.7853 27.6457 25.5743C27.7144 25.3633 27.8394 25.1751 28.0073 25.0299C28.1751 24.8847 28.3794 24.7881 28.5981 24.7505L31.5474 24.2434L32.9431 21.5959C33.0465 21.3997 33.2016 21.2353 33.3916 21.1207C33.5816 21.0061 33.7993 20.9455 34.0212 20.9455C34.2431 20.9455 34.4608 21.0061 34.6508 21.1207C34.8408 21.2353 34.9959 21.3997 35.0993 21.5959L36.4948 24.2432L39.4445 24.7504C39.6632 24.788 39.8675 24.8846 40.0353 25.0298C40.2031 25.1749 40.3281 25.3632 40.3968 25.5742C40.4655 25.7852 40.4753 26.0109 40.4251 26.2271C40.3749 26.4433 40.2667 26.6416 40.1121 26.8008L38.0249 28.9488L38.4495 31.9102C38.481 32.1298 38.452 32.3537 38.3656 32.558C38.2792 32.7623 38.1387 32.9391 37.9592 33.0694C37.7797 33.1997 37.5681 33.2786 37.3471 33.2975C37.1262 33.3164 36.9042 33.2747 36.7052 33.1768V33.1776ZM35.8588 27.6809L36.7524 26.7613L35.4901 26.5442C35.306 26.5126 35.1317 26.4391 34.9805 26.3293C34.8294 26.2196 34.7055 26.0766 34.6184 25.9114L34.021 24.7781L33.4236 25.9114C33.3365 26.0766 33.2126 26.2196 33.0614 26.3293C32.9103 26.4391 32.7359 26.5126 32.5518 26.5442L31.2897 26.7612L32.1833 27.6809C32.3133 27.8147 32.4109 27.9766 32.4684 28.1541C32.526 28.3316 32.542 28.5199 32.5153 28.7046L32.3325 29.9712L33.4842 29.4055C33.6515 29.3233 33.8354 29.2806 34.0218 29.2806C34.2082 29.2806 34.3921 29.3233 34.5594 29.4055L35.7089 29.9709L35.5271 28.7028C35.5006 28.5184 35.5168 28.3305 35.5743 28.1533C35.6318 27.9762 35.7291 27.8145 35.8588 27.6809ZM69.74 15.4848H80.0094C80.3326 15.4848 80.6426 15.3564 80.8711 15.1279C81.0997 14.8993 81.2281 14.5893 81.2281 14.2661C81.2281 13.9428 81.0997 13.6329 80.8711 13.4043C80.6426 13.1757 80.3326 13.0473 80.0094 13.0473H69.74C69.4168 13.0473 69.1068 13.1757 68.8782 13.4043C68.6497 13.6329 68.5213 13.9428 68.5213 14.2661C68.5213 14.5893 68.6497 14.8993 68.8782 15.1279C69.1068 15.3564 69.4168 15.4848 69.74 15.4848ZM69.74 9.55561H80.0094C80.3326 9.55561 80.6426 9.42721 80.8711 9.19865C81.0997 8.97009 81.2281 8.66009 81.2281 8.33686C81.2281 8.01363 81.0997 7.70363 80.8711 7.47507C80.6426 7.24651 80.3326 7.11811 80.0094 7.11811H69.74C69.4168 7.11811 69.1068 7.24651 68.8782 7.47507C68.6497 7.70363 68.5213 8.01363 68.5213 8.33686C68.5213 8.66009 68.6497 8.97009 68.8782 9.19865C69.1068 9.42721 69.4168 9.55561 69.74 9.55561Z" fill="white"/>
</svg>
