<svg width="40" height="40" viewBox="0 0 40 40" fill="none" xmlns="http://www.w3.org/2000/svg">
<path d="M39.8595 8.46856C39.858 6.61263 39.2365 4.81041 38.0938 3.34797C36.9511 1.88553 35.3527 0.846693 33.5522 0.396356C31.7517 -0.0539804 29.8524 0.109994 28.1558 0.862249C26.4592 1.6145 25.0624 2.91193 24.1873 4.54858C21.467 3.80612 18.5988 3.79612 15.8734 4.5196C13.148 5.24308 10.6624 6.67431 8.66853 8.66819C6.67465 10.6621 5.24342 13.1477 4.51994 15.8731C3.79646 18.5984 3.80646 21.4667 4.54892 24.1869C3.39956 24.7983 2.40953 25.6706 1.6583 26.7338C0.907072 27.7971 0.415565 29.0216 0.223229 30.3092C0.030893 31.5967 0.143086 32.9115 0.550802 34.1478C0.958519 35.3842 1.6504 36.5077 2.57092 37.4283C3.49144 38.3489 4.61495 39.0408 5.85128 39.4486C7.08761 39.8564 8.40233 39.9686 9.6899 39.7764C10.9775 39.5841 12.202 39.0927 13.2653 38.3415C14.3286 37.5903 15.2009 36.6004 15.8124 35.451C18.5327 36.1936 21.401 36.2038 24.1265 35.4803C26.8519 34.7569 29.3377 33.3257 31.3316 31.3318C33.3256 29.3379 34.7569 26.8522 35.4804 24.1268C36.2039 21.4013 36.1939 18.533 35.4514 15.8127C36.782 15.1021 37.8949 14.0437 38.6712 12.7503C39.4475 11.4569 39.8582 9.97705 39.8595 8.46856ZM31.7345 16.7864C31.9639 17.6268 32.1024 18.4893 32.1477 19.3592H29.6095V20.6404H32.1394C31.9954 23.4192 30.8984 26.0635 29.033 28.1281L27.4987 26.5906L26.5928 27.4964L28.1303 29.0307C26.0655 30.8972 23.4204 31.995 20.6408 32.139V29.6092H19.3595V32.1473C18.4896 32.1023 17.627 31.9635 16.7868 31.7335C16.7868 31.6656 16.797 31.5996 16.797 31.5311C16.7945 29.3231 15.9162 27.2063 14.355 25.645C12.7937 24.0837 10.6769 23.2055 8.4689 23.2029C8.40035 23.2029 8.33437 23.2113 8.26582 23.2132C8.03611 22.3729 7.89758 21.5104 7.85262 20.6404H10.3908V19.3592H7.86095C8.0049 16.5804 9.10193 13.9361 10.9673 11.8716L12.5016 13.4059L13.4075 12.5L11.8719 10.967C13.9365 9.10159 16.5808 8.00456 19.3595 7.86061V10.3904H20.6408V7.85292C21.5107 7.89799 22.3732 8.0363 23.2135 8.26548C23.2135 8.33403 23.2033 8.40001 23.2033 8.46856C23.2058 10.6765 24.0841 12.7933 25.6453 14.3546C27.2066 15.9159 29.3234 16.7941 31.5314 16.7967C31.6 16.7967 31.6659 16.7884 31.7345 16.7864ZM5.26578 19.9998C5.26233 17.7511 5.77441 15.5315 6.76268 13.5116C7.75094 11.4917 9.18909 9.72527 10.9666 8.34793C12.7441 6.9706 14.8138 6.01907 17.0164 5.56644C19.2191 5.11381 21.4962 5.17214 23.6729 5.73694C23.5318 6.1395 23.4223 6.55246 23.3455 6.97206C21.0814 6.38678 18.7038 6.40256 16.4477 7.01785C14.1916 7.63313 12.1351 8.8266 10.4817 10.4803C8.82819 12.1339 7.63496 14.1905 7.01994 16.4467C6.40492 18.7029 6.38942 21.0805 6.97496 23.3445C6.55449 23.4215 6.14068 23.5311 5.73728 23.6725C5.42655 22.4729 5.26814 21.239 5.26578 19.9998ZM8.4689 38.5779C7.07516 38.5779 5.71272 38.1646 4.55387 37.3903C3.39501 36.616 2.4918 35.5154 1.95844 34.2278C1.42507 32.9401 1.28552 31.5232 1.55743 30.1563C1.82933 28.7893 2.50048 27.5337 3.48601 26.5482C4.47153 25.5626 5.72716 24.8915 7.09412 24.6196C8.46108 24.3477 9.87797 24.4872 11.1656 25.0206C12.4533 25.554 13.5538 26.4572 14.3282 27.616C15.1025 28.7749 15.5158 30.1373 15.5158 31.5311C15.5136 33.3993 14.7704 35.1905 13.4494 36.5115C12.1283 37.8326 10.3372 38.5757 8.4689 38.5779ZM34.7345 19.9998C34.738 22.2485 34.2259 24.4681 33.2376 26.488C32.2494 28.5079 30.8112 30.2744 29.0337 31.6517C27.2562 33.029 25.1865 33.9806 22.9839 34.4332C20.7812 34.8858 18.5041 34.8275 16.3274 34.2627C16.4688 33.8593 16.5785 33.4455 16.6554 33.025C18.9193 33.6105 21.2968 33.595 23.5528 32.98C25.8088 32.365 27.8652 31.1718 29.5186 29.5183C31.1721 27.8648 32.3653 25.8084 32.9804 23.5524C33.5954 21.2964 33.6109 18.9189 33.0253 16.6551C33.4458 16.5781 33.8596 16.4685 34.263 16.3271C34.5738 17.5267 34.7322 18.7606 34.7345 19.9998ZM31.5314 15.5154C30.1377 15.5154 28.7752 15.1021 27.6164 14.3278C26.4575 13.5535 25.5543 12.4529 25.0209 11.1653C24.4876 9.87764 24.348 8.46074 24.6199 7.09378C24.8918 5.72682 25.563 4.47119 26.5485 3.48567C27.534 2.50014 28.7897 1.82899 30.1566 1.55709C31.5236 1.28518 32.9405 1.42474 34.2281 1.9581C35.5158 2.49146 36.6163 3.39467 37.3907 4.55353C38.165 5.71238 38.5783 7.07482 38.5783 8.46856C38.5761 10.3368 37.8329 12.128 36.5119 13.449C35.1908 14.7701 33.3997 15.5132 31.5314 15.5154Z" fill="#D9980F"/>
<path d="M13.4655 33.0316C13.3974 32.9399 13.306 32.8681 13.2008 32.8236C13.0956 32.7791 12.9804 32.7636 12.8672 32.7785C12.7201 32.7999 12.5718 32.8113 12.4232 32.8125C11.5035 32.7968 10.6276 32.4171 9.9874 31.7566C9.34721 31.0962 8.99503 30.2088 9.00805 29.2891C9.00773 28.6164 9.19617 27.9572 9.55194 27.3864C9.61112 27.2887 9.64309 27.177 9.64456 27.0627C9.64602 26.9485 9.61692 26.836 9.56027 26.7368C9.50326 26.6365 9.42072 26.5531 9.32103 26.495C9.22133 26.437 9.10804 26.4063 8.99268 26.4062C7.63344 26.4062 6.32988 26.9462 5.36875 27.9073C4.40763 28.8685 3.86768 30.172 3.86768 31.5312C3.86768 32.8905 4.40763 34.194 5.36875 35.1552C6.32988 36.1163 7.63344 36.6562 8.99268 36.6562C9.95606 36.6484 10.8968 36.3634 11.7026 35.8353C12.5083 35.3071 13.145 34.5582 13.5366 33.678C13.5835 33.5737 13.6017 33.4588 13.5892 33.3451C13.5767 33.2314 13.534 33.1232 13.4655 33.0316ZM8.99268 35.375C7.98911 35.3583 7.03313 34.9443 6.33442 34.2237C5.63571 33.5031 5.2513 32.5349 5.26552 31.5312C5.2587 30.7107 5.51553 29.9097 5.99818 29.2461C6.48083 28.5825 7.1638 28.0914 7.94654 27.8451C7.80159 28.3127 7.72795 28.7995 7.72808 29.2891C7.71902 30.4403 8.126 31.5561 8.87414 32.4311C9.62228 33.3061 10.6613 33.8815 11.7999 34.0515C11.4562 34.4627 11.027 34.7942 10.5422 35.0228C10.0574 35.2514 9.52865 35.3715 8.99268 35.375ZM30.0622 8.92167C30.1518 8.83208 30.2127 8.71794 30.2375 8.59369C30.2622 8.46944 30.2495 8.34065 30.201 8.22361C30.1525 8.10657 30.0704 8.00653 29.9651 7.93613C29.8598 7.86574 29.736 7.82815 29.6093 7.82812H26.4061V9.10938H28.0628L26.5938 10.5783C26.5043 10.6679 26.4433 10.7821 26.4186 10.9063C26.3939 11.0306 26.4066 11.1593 26.455 11.2764C26.5035 11.3934 26.5856 11.4935 26.6909 11.5639C26.7963 11.6343 26.9201 11.6718 27.0468 11.6719H30.2499V10.3906H28.5932L30.0622 8.92167ZM33.7182 9.10938L36.4684 6.35917C36.558 6.26958 36.619 6.15544 36.6437 6.03119C36.6684 5.90694 36.6557 5.77815 36.6073 5.66111C36.5588 5.54407 36.4767 5.44403 36.3714 5.37363C36.266 5.30324 36.1422 5.26565 36.0155 5.26562H31.5311V6.54688H34.4691L31.7188 9.29708C31.6293 9.38667 31.5683 9.50081 31.5436 9.62506C31.5189 9.74931 31.5316 9.8781 31.58 9.99514C31.6285 10.1122 31.7106 10.2122 31.8159 10.2826C31.9213 10.353 32.0451 10.3906 32.1718 10.3906H36.6561V9.10938H33.7182ZM20.6405 12.9531H19.3593V20C19.3593 20.1699 19.4268 20.3328 19.547 20.4529L24.0313 24.9373L24.9372 24.0315L20.6405 19.7348V12.9531Z" fill="#D9980F"/>
</svg>
