<svg width="41" height="39" viewBox="0 0 41 39" fill="none" xmlns="http://www.w3.org/2000/svg">
<path fill-rule="evenodd" clip-rule="evenodd" d="M11.1565 33.5191L11.7725 34.6075L11.7734 34.6091C12.2349 35.4299 11.9423 36.4772 11.1262 36.9382L9.09347 38.0903L9.09155 38.0914C8.27074 38.5529 7.22347 38.2603 6.76226 37.4439L0.784624 26.8814C0.318992 26.0599 0.611539 25.0117 1.42865 24.5502L3.46377 23.3981L3.46426 23.3977C4.28104 22.9364 5.32871 23.2265 5.79378 24.0432L5.79466 24.0447L6.30282 24.9426L11.6935 21.8216C13.2742 20.9074 14.8882 20.3057 16.6243 20.8694C18.338 21.4251 21.136 22.6224 23.9913 23.1383C24.0196 23.1435 24.0476 23.1505 24.075 23.1594C25.4747 23.6125 26.3275 25.0266 25.9453 26.4478C25.8691 26.7312 25.761 26.9885 25.6231 27.2167C26.0024 27.1284 26.3715 26.9819 26.7333 26.7711L33.9814 22.5498C36.5607 21.0471 38.2783 21.1962 39.2516 21.8492C40.0789 22.4042 40.4606 23.3526 40.4359 24.2829C40.411 25.2218 39.9661 26.1201 39.2297 26.5735L26.0774 34.6712C24.7126 35.5136 23.2177 35.711 21.6689 35.2978L21.6682 35.2976L12.385 32.8097L11.1565 33.5191ZM10.6524 35.2399L4.67585 24.6793L4.67528 24.6783C4.55912 24.4762 4.29969 24.4033 4.09694 24.5177L2.0623 25.6695L2.06173 25.6699C1.85947 25.7842 1.7884 26.0438 1.9036 26.2471L1.90384 26.2475L7.88172 36.8103L7.88196 36.8108C7.99652 37.0136 8.25683 37.0847 8.46063 36.9704L10.492 35.8191L10.4928 35.8186C10.6956 35.7041 10.7668 35.4437 10.6524 35.2399ZM10.523 32.3996L11.9726 31.5625C12.0457 31.5203 12.1265 31.4929 12.2102 31.4819C12.2939 31.4708 12.379 31.4764 12.4606 31.4983L22.0006 34.0551C23.1952 34.3737 24.3492 34.2264 25.4019 33.5767L25.4025 33.5763L38.5552 25.4783C38.9153 25.2565 39.1065 24.8126 39.1442 24.3559C39.202 23.6546 38.8702 22.8821 38.0027 22.7003C37.2228 22.5369 36.1234 22.7905 34.6288 23.6612L27.3809 27.8825C26.2346 28.5505 25.0331 28.7346 23.7239 28.5262L23.7216 28.5259L22.8221 28.3795C22.8134 28.3781 22.8048 28.3765 22.7962 28.3747L22.7953 28.3745C21.161 28.039 19.6453 27.5452 17.9635 27.0933C17.6207 27.0012 17.4171 26.648 17.5092 26.3052C17.6014 25.9624 17.9545 25.7589 18.2973 25.8511C19.9442 26.2937 21.4288 26.7789 23.0279 27.1092C23.8834 27.2053 24.5065 26.8462 24.703 26.1142L24.7031 26.1139C24.9028 25.3711 24.4391 24.649 23.7161 24.3956C20.8127 23.8637 17.9703 22.658 16.2274 22.0929L16.2272 22.0928C14.8513 21.6461 13.5902 22.2106 12.3376 22.935L6.93639 26.0621L10.523 32.3996ZM3.84604 25.8286C4.30741 25.7599 4.73582 26.0785 4.80447 26.5398C4.87039 27.0012 4.55188 27.4323 4.09051 27.4982C3.62914 27.5669 3.20073 27.2455 3.13208 26.7843C3.06615 26.3229 3.38475 25.8945 3.84604 25.8286ZM13.7394 18.5433L8.80583 18.5425C4.27187 18.5425 0.562581 14.8332 0.5625 10.2993C0.561375 5.76637 4.27067 2.05691 8.80471 2.05691H16.4418C16.6195 2.05691 16.7803 2.12894 16.8967 2.24535C16.9564 2.30501 17.0038 2.37589 17.0362 2.45392C17.0685 2.53195 17.085 2.61559 17.0849 2.70005V6.56104C17.0851 6.64565 17.0684 6.72945 17.036 6.8076C17.0036 6.88575 16.956 6.95671 16.896 7.01638C16.8363 7.07637 16.7654 7.12394 16.6872 7.15637C16.6091 7.18879 16.5253 7.20542 16.4407 7.20531H8.80583C7.10305 7.20531 5.71089 8.59754 5.71089 10.3003V10.3006C5.70993 12.0025 7.10313 13.3953 8.80583 13.3953H16.4407C16.6112 13.3953 16.7748 13.4631 16.8954 13.5836C17.016 13.7042 17.0837 13.8677 17.0838 14.0382L17.0849 17.9004C17.085 17.9848 17.0684 18.0685 17.0361 18.1465C17.0038 18.2246 16.9564 18.2955 16.8967 18.3553C16.8369 18.415 16.766 18.4624 16.688 18.4947C16.6099 18.5271 16.5263 18.5437 16.4418 18.5437H13.7622C13.7545 18.5437 13.747 18.5436 13.7394 18.5433ZM13.119 3.34319H8.80471C4.97828 3.34319 1.84773 6.47358 1.84877 10.299V10.2992C1.84877 14.1257 4.97933 17.2563 8.80591 17.2563L13.1188 17.2569L13.1181 14.6816H8.80583C6.39535 14.6816 4.42333 12.7094 4.42462 10.3002C4.4247 7.88968 6.39543 5.91903 8.80583 5.91903H13.119V3.34319ZM15.7985 3.34319H14.4053V5.91791H15.7978L15.7985 3.34319ZM15.7985 17.2574L15.7978 14.6816H14.4043L14.4051 17.2571L15.7985 17.2574ZM21.2413 9.56088L18.6589 9.54721C18.4883 9.54621 18.3251 9.47755 18.2052 9.3563C18.0852 9.23506 18.0183 9.07116 18.0192 8.90062C18.0202 8.73008 18.0888 8.56691 18.21 8.44696C18.3313 8.32701 18.4952 8.2601 18.6657 8.26094L21.4268 8.27557C21.5063 7.90488 21.6078 7.53925 21.7307 7.18063H19.2066C18.8516 7.18063 18.5634 6.89242 18.5634 6.53749C18.5634 6.18256 18.8516 5.89435 19.2066 5.89435H22.2801C22.4739 5.51916 22.6917 5.15844 22.9315 4.81412H18.6622C18.3073 4.81412 18.0191 4.52592 18.0191 4.17098C18.0191 3.81597 18.3073 3.52785 18.6622 3.52785H24.0041C25.7453 1.77417 28.1583 0.688477 30.8252 0.688477C36.1342 0.688477 40.437 4.99131 40.437 10.3003C40.437 15.6093 36.1342 19.9122 30.8252 19.9122C28.1583 19.9122 25.7453 18.8264 24.0041 17.0728H19.2066C18.8516 17.0728 18.5634 16.7846 18.5634 16.4297C18.5634 16.0747 18.8516 15.7865 19.2066 15.7865H22.9315C22.6909 15.4411 22.4733 15.0802 22.2801 14.7062H18.6622C18.3073 14.7062 18.0191 14.4181 18.0191 14.0631C18.0191 13.7081 18.3073 13.4199 18.6622 13.4199H21.7307C21.5859 12.9975 21.4709 12.5653 21.3866 12.1268H19.2066C18.8516 12.1268 18.5634 11.8385 18.5634 11.4836C18.5634 11.1286 18.8516 10.8405 19.2066 10.8405H21.2282C21.2046 10.4141 21.209 9.98667 21.2413 9.56088ZM25.2816 16.5125C26.7537 17.827 28.6961 18.6259 30.8252 18.6259C32.9543 18.6259 34.8965 17.827 36.3686 16.5125C35.9312 13.845 33.6151 11.8093 30.8252 11.8093C28.0352 11.8093 25.7191 13.845 25.2816 16.5125ZM37.4206 15.3822C38.5054 13.9763 39.1507 12.2137 39.1507 10.3003C39.1507 5.70173 35.4238 1.97475 30.8252 1.97475C26.2266 1.97475 22.4996 5.70173 22.4996 10.3003C22.4996 12.2137 23.1448 13.9763 24.2297 15.3822C24.8646 13.3345 26.4263 11.6941 28.424 10.9524C27.5653 10.2523 27.0147 9.18697 27.0147 7.99878C27.0147 5.90231 28.7287 4.18827 30.8252 4.18827C32.9216 4.18827 34.6357 5.90231 34.6357 7.99878C34.6357 9.18697 34.0851 10.2523 33.2263 10.9524C35.224 11.6941 36.7858 13.3345 37.4206 15.3822ZM30.8252 10.523C32.2139 10.523 33.3494 9.38755 33.3494 7.99878C33.3494 6.61 32.2139 5.47454 30.8252 5.47454C29.4364 5.47454 28.3009 6.61 28.3009 7.99878C28.3009 9.38755 29.4364 10.523 30.8252 10.523Z" fill="#DC1300"/>
</svg>
