<svg width="107" height="91" viewBox="0 0 107 91" fill="none" xmlns="http://www.w3.org/2000/svg">
<circle cx="23.1028" cy="37.3235" r="22.9412" fill="#F93C3C" fill-opacity="0.12"/>
<circle cx="97.6618" cy="43.0588" r="9.17647" fill="#F93C3C" fill-opacity="0.21"/>
<path d="M97.4523 51.9899C97.1555 51.1583 96.3934 50.6094 95.5108 50.5919L86.7341 50.4155L83.3848 42.3018C83.0479 41.4855 82.2612 40.9778 81.3772 40.9997C80.4944 41.0251 79.7369 41.5804 79.4475 42.4143L78.9177 43.9401C74.8191 39.4243 69.5683 36.2867 63.7628 34.8192C68.9064 32.0814 72.4169 26.6644 72.4169 20.4422C72.4169 11.4679 65.1157 4.16675 56.1414 4.16675C47.167 4.16675 39.8659 11.4679 39.8659 20.4422C39.8659 26.669 43.3813 32.0892 48.5311 34.8252C43.8029 36.0271 39.4055 38.3447 35.6969 41.6396C35.2563 41.6021 34.9494 41.5523 34.705 41.4632C34.2598 41.3011 33.7413 40.9085 32.7087 40.1261C32.446 39.9271 32.1536 39.7054 31.8237 39.4586C29.9634 38.066 27.4637 38.066 25.6038 39.4586C25.3081 39.6801 25.0131 39.9027 24.7188 40.1261C23.686 40.9085 23.1676 41.3013 22.7225 41.4632C22.2775 41.6252 21.6278 41.6577 20.3338 41.722C20.0046 41.7384 19.6383 41.7567 19.2266 41.7796C16.9067 41.9086 14.9919 43.5154 14.4616 45.7779C14.3776 46.1377 14.2947 46.4977 14.2128 46.858C13.9247 48.1213 13.78 48.7553 13.5431 49.1655C13.3063 49.5757 12.8295 50.0181 11.8798 50.8992C11.6086 51.1502 11.3382 51.4021 11.0686 51.6549C9.37447 53.2451 8.94027 55.7067 9.98855 57.7805C10.1554 58.1102 10.3233 58.4393 10.4922 58.7678C11.0834 59.9208 11.3802 60.4995 11.4625 60.966C11.5448 61.4326 11.4639 62.0778 11.3027 63.3633C11.2618 63.6903 11.2162 64.0545 11.1671 64.4638C10.8913 66.7708 12.1411 68.9358 14.2771 69.8506C14.656 70.0129 14.9941 70.1554 15.2978 70.2834L15.333 70.2981L10.5923 80.4806C10.4826 80.7161 10.4396 80.9773 10.4679 81.2356C10.4962 81.4939 10.5948 81.7395 10.7529 81.9458C10.911 82.152 11.1226 82.311 11.3647 82.4054C11.6068 82.4998 11.8702 82.5261 12.1262 82.4813L17.3101 81.5756L19.9541 86.1256C20.0847 86.3503 20.2743 86.5349 20.5024 86.6594C20.7305 86.7839 20.9884 86.8435 21.248 86.8317C21.5076 86.8199 21.759 86.7372 21.9749 86.5926C22.1908 86.4479 22.3629 86.2469 22.4726 86.0113L27.2499 75.7503C27.9395 75.5452 28.367 75.4418 28.7139 75.4418C29.1876 75.4418 29.8091 75.6336 31.0472 76.0157L31.4038 76.1255L34.8172 84.0505C34.9199 84.2893 35.0861 84.4953 35.2978 84.6462C35.5094 84.7971 35.7583 84.887 36.0175 84.9063C36.2767 84.9256 36.5363 84.8735 36.7679 84.7556C36.9995 84.6377 37.1944 84.4586 37.3314 84.2377L40.106 79.7662L45.2614 80.822C45.5159 80.874 45.7799 80.8554 46.0246 80.768C46.2693 80.6806 46.4854 80.5279 46.6494 80.3263C46.8134 80.1248 46.9191 79.8822 46.955 79.6248C46.9908 79.3675 46.9555 79.1052 46.8528 78.8666L42.9977 69.9158L43.1511 69.8504C45.2871 68.9356 46.537 66.7707 46.2611 64.4635C46.2122 64.0545 46.1666 63.6903 46.1255 63.3637C46.1065 63.2117 46.0885 63.0692 46.072 62.9343H73.1074L71.6437 68.9986C71.4367 69.8568 71.7736 70.7334 72.5027 71.2316C72.8525 71.4726 73.267 71.6019 73.6917 71.6025C74.1112 71.6025 74.5305 71.4755 74.8952 71.2215L82.0991 66.2053L89.5778 70.801C90.33 71.2631 91.2677 71.2135 91.9669 70.6744C92.6661 70.1353 92.9528 69.241 92.6969 68.3955L90.1526 59.994L96.8344 54.3013C97.5067 53.729 97.7492 52.8215 97.4523 51.9899ZM77.839 47.0464L76.5678 50.7068L67.8158 51.3847C66.9373 51.4528 66.2088 52.0447 65.9599 52.8926C65.7111 53.7404 66.0042 54.6321 66.7066 55.1641L73.2085 60.0905H57.4136L64.3842 52.2201C64.5473 52.0358 64.6598 51.8124 64.7107 51.5716C64.7617 51.3308 64.7493 51.0809 64.6748 50.8464L60.2772 37.0197C67.157 38.0315 73.3793 41.555 77.839 47.0464ZM46.359 51.6547C46.0585 51.3726 45.7894 51.1231 45.5479 50.899C44.5981 50.0178 44.1214 49.5756 43.8844 49.1654C43.6477 48.755 43.503 48.121 43.2147 46.8577C43.1415 46.5365 43.0598 46.1789 42.9659 45.7777C42.5539 44.0182 41.3023 42.659 39.6757 42.0793C43.3149 39.4205 47.5457 37.6859 52.0039 37.0245L47.6078 50.8464C47.5332 51.0809 47.5208 51.3308 47.5717 51.5716C47.6227 51.8124 47.7352 52.0358 47.8984 52.2201L54.869 60.0905H46.2753C46.4326 59.7491 46.6493 59.3263 46.9354 58.7682C47.086 58.4749 47.2534 58.1484 47.4393 57.7803C48.4872 55.7067 48.0532 53.2451 46.359 51.6547ZM56.1378 36.7176H56.1447C56.4991 36.7176 56.852 36.7266 57.204 36.7396L61.7203 50.939L56.1412 57.2381L50.5623 50.939L55.0787 36.7392C55.4316 36.7254 55.7847 36.7182 56.1378 36.7176ZM42.7098 20.4421C42.7098 13.0357 48.7352 7.01032 56.1415 7.01032C63.5479 7.01032 69.5733 13.0357 69.5733 20.4421C69.5733 27.8477 63.549 33.8726 56.1437 33.8738H56.1392C48.7339 33.8726 42.7098 27.8475 42.7098 20.4421ZM21.044 82.3416L19.2705 79.2901C19.1244 79.0388 18.9047 78.8383 18.6412 78.7156C18.3776 78.5929 18.0828 78.5539 17.7964 78.6039L14.3198 79.2112L17.8085 71.7179C18.0763 72.0511 18.3929 72.541 18.8721 73.283C19.0721 73.5936 19.2732 73.9035 19.4753 74.2128C20.4455 75.6965 22.0427 76.5443 23.7335 76.5651L21.044 82.3416ZM39.7054 76.7815C39.4205 76.7233 39.1247 76.7537 38.8577 76.8687C38.5906 76.9837 38.3652 77.1778 38.2119 77.4248L36.351 80.4235L34.6456 76.4639C35.9696 76.1972 37.1663 75.4135 37.9519 74.2128C38.1776 73.8678 38.3766 73.5594 38.5554 73.2827C39.2582 72.1942 39.6108 71.648 39.9738 71.3436C40.0873 71.2483 40.2242 71.158 40.395 71.0637L43.1628 77.4898L39.7054 76.7815ZM43.3034 63.7177C43.3438 64.0398 43.3886 64.3983 43.4369 64.8012C43.5635 65.8605 43.0116 66.8163 42.031 67.2365C41.6578 67.3963 41.3247 67.5367 41.0258 67.6627C38.1099 68.8916 37.8827 69.0819 36.1663 71.7399C35.9902 72.0128 35.7942 72.3165 35.5718 72.6562C34.988 73.5491 33.9503 73.9262 32.9294 73.6181C32.5811 73.5126 32.2331 73.406 31.8854 73.2983C28.8618 72.3652 28.5653 72.3652 25.5419 73.2983C25.2318 73.3939 24.8864 73.5006 24.4977 73.6181C23.4765 73.9262 22.4394 73.5491 21.8555 72.6563C21.6333 72.3165 21.4373 72.0129 21.2612 71.7405C19.5448 69.0821 19.3175 68.8916 16.4017 67.6629C16.0662 67.5218 15.731 67.3798 15.3963 67.2367C14.4156 66.8165 13.8639 65.8607 13.9904 64.8014C14.0386 64.3981 14.0835 64.0394 14.1241 63.7172C14.5178 60.5779 14.4662 60.2858 13.0223 57.4704C12.8742 57.1815 12.7093 56.86 12.5262 56.4978C12.0449 55.5457 12.2365 54.4586 13.0145 53.7285C13.3106 53.4507 13.5756 53.2049 13.8136 52.9842C16.1334 50.8323 16.2816 50.5755 16.9852 47.4906C17.0574 47.174 17.1377 46.8218 17.2303 46.4266C17.4737 45.3878 18.3193 44.6783 19.3845 44.6191C19.7897 44.5965 20.1509 44.5786 20.4751 44.5624C23.6353 44.4049 23.914 44.3036 26.4361 42.3928C26.6949 42.1968 26.9828 41.9785 27.3079 41.7352C27.7348 41.4156 28.2243 41.2556 28.7138 41.2556C29.2032 41.2556 29.6927 41.4154 30.1196 41.7352C30.4109 41.9535 30.7015 42.1727 30.9914 42.3928C33.5135 44.3036 33.7922 44.4049 36.9523 44.5624C37.2765 44.5786 37.6374 44.5965 38.0429 44.6191C39.1082 44.6783 39.9537 45.3878 40.197 46.4265C40.2896 46.8216 40.3699 47.174 40.4421 47.4904C41.1459 50.5755 41.2941 50.8322 43.6139 52.984C43.8519 53.2047 44.1169 53.4507 44.413 53.7285C45.191 54.4586 45.3826 55.5457 44.9013 56.4978C44.7182 56.8602 44.5531 57.1819 44.4049 57.4709C42.9611 60.286 42.9098 60.5779 43.3034 63.7177ZM87.9414 58.1425C87.6294 58.4083 87.4016 58.7594 87.2862 59.1527C87.1707 59.546 87.1725 59.9645 87.2915 60.3568L89.4131 67.362L83.1771 63.53C82.8279 63.3153 82.4236 63.2072 82.0138 63.2189C81.6041 63.2306 81.2066 63.3617 80.8703 63.596L74.8635 67.7786L76.581 60.6634C76.6771 60.2649 76.6549 59.8471 76.5171 59.4611C76.3793 59.0751 76.1319 58.7377 75.8052 58.4902L69.9714 54.0699L77.2692 53.5046C77.6778 53.4729 78.0683 53.3226 78.3928 53.0723C78.7174 52.822 78.9618 52.4825 79.0963 52.0953L81.4973 45.1811L84.2901 51.9465C84.4464 52.3254 84.71 52.6505 85.0483 52.8818C85.3867 53.1131 85.7852 53.2407 86.195 53.249L93.5129 53.396L87.9414 58.1425ZM28.7136 44.716C21.67 44.716 15.9396 50.4463 15.9396 57.4899C15.9396 64.5335 21.67 70.2638 28.7136 70.2638C35.757 70.2638 41.4873 64.5335 41.4873 57.4899C41.4873 50.4463 35.757 44.716 28.7136 44.716ZM28.7136 67.4199C23.2379 67.4199 18.7834 62.9654 18.7834 57.4897C18.7834 52.0141 23.2379 47.5595 28.7136 47.5595C34.189 47.5595 38.6436 52.0141 38.6436 57.4897C38.6436 62.9654 34.189 67.4199 28.7136 67.4199ZM33.9219 50.9982C33.5143 50.9985 33.1109 51.0799 32.735 51.2375C32.3592 51.3951 32.0184 51.6258 31.7324 51.9162L27.2179 56.4756L25.6919 54.9497C25.1054 54.3632 24.3255 54.0401 23.496 54.0401C22.6665 54.0401 21.8864 54.363 21.3001 54.9495C20.7138 55.5361 20.3906 56.316 20.3906 57.1455C20.3906 57.9751 20.7136 58.755 21.3001 59.3414L25.0307 63.072C25.6173 63.6585 26.3972 63.9815 27.2267 63.9815C28.0561 63.9815 28.8362 63.6585 29.4226 63.072C30.8412 61.6533 32.2716 60.2023 33.6548 58.7993C34.4816 57.9607 35.3084 57.1222 36.1372 56.2856C37.3399 55.0718 37.3332 53.1048 36.1224 51.9009C35.8352 51.6136 35.494 51.3859 35.1185 51.231C34.743 51.076 34.3406 50.9968 33.9343 50.998L33.9219 50.9982ZM34.1172 54.2843C33.287 55.1228 32.4579 55.9623 31.6298 56.803C30.2501 58.2024 28.8232 59.6497 27.4117 61.0613C27.3486 61.1244 27.2761 61.1377 27.2267 61.1377C27.1772 61.1377 27.1047 61.1244 27.0416 61.0611L23.3108 57.3303C23.2863 57.3061 23.2669 57.2773 23.2538 57.2454C23.2406 57.2136 23.234 57.1795 23.2342 57.1451C23.2342 57.0957 23.2475 57.0232 23.311 56.9599C23.3741 56.8968 23.4466 56.8835 23.496 56.8835C23.5454 56.8835 23.6179 56.8968 23.6812 56.9601L26.2177 59.4965C26.4843 59.7631 26.8459 59.9129 27.2229 59.913H27.2265C27.4138 59.9125 27.5992 59.875 27.772 59.8027C27.9447 59.7304 28.1015 59.6246 28.2333 59.4915L33.7534 53.9167C33.7768 53.8928 33.8048 53.8738 33.8357 53.8609C33.8666 53.848 33.8998 53.8415 33.9333 53.8417C33.982 53.8375 34.0547 53.8545 34.1176 53.9173C34.166 53.9661 34.1931 54.0321 34.193 54.1008C34.1929 54.1696 34.1657 54.2355 34.1172 54.2843Z" fill="white"/>
</svg>
