<svg width="15" height="15" viewBox="0 0 15 15" fill="none" xmlns="http://www.w3.org/2000/svg">
<g clip-path="url(#clip0_29_1176)">
<path d="M11.6016 0.250977H3.89844C2.02153 0.250977 0.5 1.77251 0.5 3.64941V11.3525C0.5 13.2294 2.02153 14.751 3.89844 14.751H11.6016C13.4785 14.751 15 13.2294 15 11.3525V3.64941C15 1.77251 13.4785 0.250977 11.6016 0.250977Z" fill="white"/>
<path d="M11.6016 0.250977H3.89844C2.02153 0.250977 0.5 1.77251 0.5 3.64941V11.3525C0.5 13.2294 2.02153 14.751 3.89844 14.751H11.6016C13.4785 14.751 15 13.2294 15 11.3525V3.64941C15 1.77251 13.4785 0.250977 11.6016 0.250977Z" fill="#0A66C2"/>
<path d="M10.9624 12.5808H12.6202C12.6803 12.5808 12.7379 12.5569 12.7804 12.5145C12.8229 12.472 12.8468 12.4144 12.8468 12.3543L12.8477 8.85151C12.8477 7.02072 12.4532 5.61348 10.3137 5.61348C9.50036 5.58324 8.73339 6.00249 8.31952 6.70257C8.3175 6.70597 8.31442 6.70862 8.31075 6.7101C8.30708 6.71159 8.30303 6.71183 8.29921 6.7108C8.29539 6.70976 8.29201 6.70751 8.2896 6.70438C8.28718 6.70125 8.28585 6.69741 8.28582 6.69345V6.00906C8.28582 5.94897 8.26195 5.89135 8.21946 5.84886C8.17697 5.80637 8.11935 5.7825 8.05926 5.7825H6.48595C6.42586 5.7825 6.36824 5.80637 6.32575 5.84886C6.28326 5.89135 6.25939 5.94897 6.25939 6.00906V12.3539C6.25939 12.414 6.28326 12.4717 6.32575 12.5141C6.36824 12.5566 6.42586 12.5805 6.48595 12.5805H8.14371C8.2038 12.5805 8.26142 12.5566 8.30391 12.5141C8.3464 12.4717 8.37027 12.414 8.37027 12.3539V9.21758C8.37027 8.33076 8.53849 7.47192 9.63795 7.47192C10.7218 7.47192 10.7358 8.48669 10.7358 9.27502V12.3542C10.7358 12.4143 10.7597 12.4719 10.8022 12.5144C10.8447 12.5569 10.9023 12.5808 10.9624 12.5808ZM2.65234 3.62834C2.65234 4.30033 3.20555 4.85325 3.87759 4.85325C4.54946 4.8532 5.10233 4.29993 5.10233 3.62806C5.10222 2.95619 4.54929 2.40332 3.87737 2.40332C3.20527 2.40332 2.65234 2.95636 2.65234 3.62834ZM3.04651 12.5808H4.70647C4.76656 12.5808 4.82419 12.5569 4.86668 12.5144C4.90917 12.4719 4.93304 12.4143 4.93304 12.3542V6.00906C4.93304 5.94897 4.90917 5.89135 4.86668 5.84886C4.82419 5.80637 4.76656 5.7825 4.70647 5.7825H3.04651C2.98642 5.7825 2.92879 5.80637 2.8863 5.84886C2.84381 5.89135 2.81994 5.94897 2.81994 6.00906V12.3542C2.81994 12.4143 2.84381 12.4719 2.8863 12.5144C2.92879 12.5569 2.98642 12.5808 3.04651 12.5808Z" fill="white"/>
</g>
<defs>
<clipPath id="clip0_29_1176">
<rect width="14.5" height="14.5" fill="white" transform="translate(0.5 0.250977)"/>
</clipPath>
</defs>
</svg>
