<svg width="15" height="15" viewBox="0 0 15 15" fill="none" xmlns="http://www.w3.org/2000/svg">
<g clip-path="url(#clip0_29_1205)">
<g clip-path="url(#clip1_29_1205)">
<path d="M2.66634 12.5837C2.29967 12.5837 1.9859 12.4532 1.72501 12.1923C1.46412 11.9314 1.33345 11.6174 1.33301 11.2503V3.25033C1.33301 2.88366 1.46367 2.56988 1.72501 2.30899C1.98634 2.0481 2.30012 1.91744 2.66634 1.91699H13.333C13.6997 1.91699 14.0137 2.04766 14.275 2.30899C14.5363 2.57033 14.6668 2.8841 14.6663 3.25033V11.2503C14.6663 11.617 14.5359 11.931 14.275 12.1923C14.0141 12.4537 13.7001 12.5841 13.333 12.5837H2.66634ZM7.99967 7.80033C8.05523 7.80033 8.11367 7.79188 8.17501 7.77499C8.23634 7.7581 8.29456 7.73321 8.34967 7.70033L13.0663 4.75033C13.1552 4.69477 13.2219 4.62544 13.2663 4.54233C13.3108 4.45921 13.333 4.36744 13.333 4.26699C13.333 4.04477 13.2386 3.8781 13.0497 3.76699C12.8608 3.65588 12.6663 3.66144 12.4663 3.78366L7.99967 6.58366L3.53301 3.78366C3.33301 3.66144 3.13856 3.65877 2.94967 3.77566C2.76079 3.89255 2.66634 4.05633 2.66634 4.26699C2.66634 4.3781 2.68856 4.47544 2.73301 4.55899C2.77745 4.64255 2.84412 4.70633 2.93301 4.75033L7.64967 7.70033C7.70523 7.73366 7.76367 7.75877 7.82501 7.77566C7.88634 7.79255 7.94456 7.80077 7.99967 7.80033Z" fill="#FFC727"/>
</g>
</g>
<defs>
<clipPath id="clip0_29_1205">
<rect width="14.5" height="14.5" fill="white" transform="translate(0.5 0.250977)"/>
</clipPath>
<clipPath id="clip1_29_1205">
<rect width="14.5" height="14.5" fill="white" transform="translate(0.5 0.250977)"/>
</clipPath>
</defs>
</svg>
